<svg xmlns="http://www.w3.org/2000/svg" width="467" height="220" viewBox="0 0 467 220" fill="none" role="img" aria-labelledby="descId">
<title id="titleId">sagor18's DSA Stats</title>
<desc id="descId">Total Questions Solved: 317, Total Contests Participated: 39, Awards: 3</desc>
<style>.header{font: 600 18px 'Segoe UI', Ubuntu, Sans-Serif;fill: #ffffff;animation: fadeInAnimation 0.8s ease-in-out forwards;}@supports(-moz-appearance: auto){.header { font-size: 15.5px; }}.stat {font: 600 24px 'Segoe UI', Ubuntu, "Helvetica Neue", Sans-Serif; fill: #ffffff;}@supports(-moz-appearance: auto) {.stat { font-size: 12px; }}.stagger {opacity: 0;animation: fadeInAnimation 0.3s ease-in-out forwards;}.icon {width: 20px;height: 20px;fill: #ffffff;}@keyframes fadeInAnimation {from {opacity: 0;}to {opacity: 1;}}</style>
<svg id="visual" viewBox="0 0 900 600" width="900" height="600" xmlns="http://www.w3.org/2000/svg" xmlns:xlink="http://www.w3.org/1999/xlink" version="1.1"><path d="M0 43L82 79L164 37L245 61L327 49L409 91L491 73L573 55L655 85L736 91L818 85L900 55L900 0L818 0L736 0L655 0L573 0L491 0L409 0L327 0L245 0L164 0L82 0L0 0Z" fill="#333333"></path><path d="M0 199L82 157L164 229L245 277L327 265L409 241L491 259L573 175L655 283L736 367L818 247L900 157L900 53L818 83L736 89L655 83L573 53L491 71L409 89L327 47L245 59L164 35L82 77L0 41Z" fill="#444444"></path><path d="M0 289L82 277L164 295L245 349L327 349L409 313L491 373L573 241L655 325L736 421L818 307L900 235L900 155L818 245L736 365L655 281L573 173L491 257L409 239L327 263L245 275L164 227L82 155L0 197Z" fill="#555555"></path><path d="M0 547L82 487L164 517L245 523L327 493L409 541L491 463L573 529L655 517L736 523L818 451L900 463L900 233L818 305L736 419L655 323L573 239L491 371L409 311L327 347L245 347L164 293L82 275L0 287Z" fill="#666666"></path><path d="M0 601L82 601L164 601L245 601L327 601L409 601L491 601L573 601L655 601L736 601L818 601L900 601L900 461L818 449L736 521L655 515L573 527L491 461L409 539L327 491L245 521L164 515L82 485L0 545Z" fill="#777777"></path></svg>
<g data-testid="card-title" transform="translate(25, 35)"><text x="0" y="0" class="header" data-testid="header">sagor18's Codolio Stats</text></g><svg xmlns="http://www.w3.org/2000/svg" viewBox="0 0 500 500" xml:space="preserve" width="775px" height="25%"><path fill="#E96F18" d="M248 495.221c-61.813-1.03-115.577-21.98-161.121-62.763-42.923-38.434-69.837-86.566-78.406-143.556C-2.199 217.918 14.971 153.618 60.71 97.78c35.484-43.319 80.842-71.473 135.335-84.26C247.766 1.385 298.192 6.64 347.14 27c31.183 12.969 58.797 31.365 81.982 55.886 35.664 37.718 58.172 82.12 64.96 133.875 8.04 61.289-5.11 117.999-39.274 169.388-30.398 45.724-72.072 77.404-123.98 95.54-26.666 9.315-54.07 13.984-82.828 13.532m1.498-478.637c-14.243 1.312-28.717 1.436-42.69 4.146-52.403 10.164-96.6 35.454-132.302 75.126-39.405 43.785-59.56 95.406-60.266 154.257-.45 37.457 7.99 73.182 25.748 106.23 42.241 78.613 108.059 122.245 197.037 129.373 46.778 3.748 91.357-6.803 131.242-31.182 85.826-52.46 125.782-129.847 117.597-230.29-4.275-52.46-27.013-97.757-63.78-135.2-46.925-47.79-104.451-71.842-172.586-72.46"/><path fill="#F5E9D1" d="M250 16.582c67.634.62 125.16 24.671 172.086 72.462 36.766 37.443 59.504 82.74 63.78 135.2 8.184 100.443-31.772 177.83-117.598 230.29-39.885 24.38-84.464 34.93-131.242 31.182-88.978-7.128-154.796-50.76-197.037-129.372-17.759-33.05-26.197-68.774-25.748-106.23.706-58.852 20.86-110.473 60.266-154.258 35.703-39.672 79.899-64.962 132.302-75.126 13.973-2.71 28.447-2.834 43.19-4.148M407.08 209.068s.06.109.543-.112c.118-.321.237-.642.563-1.205 0 0 .015-.318.472-.673.108-.361.216-.723.528-1.344 0 0 .019-.33.524-.793.158-.652.316-1.303.63-2.188 0 0-.087-.266.387-.8.203-1.34.407-2.68.927-4.882-.128-3.67-.257-7.338-.082-11.803-.692-6.721-1.385-13.443-1.963-20.85-.098-.448-.196-.897.034-2.192-.098-2.1-.196-4.2-.063-6.943-.012-.452-.023-.904.253-2.168.179-3.061.358-6.123.803-9.808.01-.449.02-.897.34-2.115.506-6.226 3.615-12.414.4-18.949 0 0-.147-.237-.13-.942-.322-.608-.644-1.217-.885-2.078 0 0-.162-.21-.168-.851-.346-.507-.692-1.013-1.12-1.415 0 0 .122-.052.095-.663-.343-.477-.686-.954-1.106-1.324 0 0 .116-.063.085-.745-.641-.898-1.283-1.796-1.972-2.994 0 0-.22-.21-.306-.728-.277-.193-.554-.385-.858-.506 0 0 .062-.044-.085-.688-1.306-1.116-2.612-2.231-4.19-3.79-.458-.225-.916-.45-1.689-1.16-.353-.133-.706-.265-1.251-.597 0 0-.278.001-.654-.49a8.3 8.3 0 0 1-1.38-.542s-.287.032-.837-.521c-4.78-1.48-9.55-3.276-15.196-.59-4.892 4.1-10.168 7.828-14.595 12.38-8.788 9.036-16.656 19.005-25.789 27.656-5.708 5.407-13.112 8.996-19.607 13.61-6.579 4.675-10.02 11.27-9.356 19.295.587 7.108 4.445 12.275 11.715 15.216l-1.484 4.185c-3.288-2.3-5.254-6.123-10.112-3.897 0 0-.46-.066-.648-.466-.286.134-.573.269-.852.403 0 0 0-.007-.628.228-.795.26-1.591.522-2.373.771 0 0-.013.01.127-.534-.399-.188-.797-.375-1.739-.627-.463-.28-.927-.559-1.291-1.555-.296-.9-.591-1.8-.794-2.993 0 0-.144-.273-.072-1.018-.332-.919-.665-1.838-.904-3.018 0 0-.15-.233-.138-.925-.317-.597-.635-1.193-.952-2.105 0 0-.23-.215-.284-.86-.277-.317-.553-.634-.693-1.129 0 0-.12-.187-.137-.827-.346-.506-.692-1.012-1.076-1.439 0 0 .086-.016.07-.658-.105-.415-.21-.83.202-1.502.232-.51.463-1.02 1.377-1.752 2.48-2.358 5.711-4.294 7.318-7.144 10.236-18.165 4.256-44.51-20.67-50.247-5.345-1.23-10.7-2.504-15.92-4.164-3.213-1.023-5.868-3.338-4.322-7.151 1.463-3.605 4.897-3.846 8.081-2.65 2.61.98 4.945 2.683 7.415 4.042 2.323 1.28 4.537 2.906 7.016 3.724 10.561 3.485 19.828-2.706 19.917-13.475.055-6.706-2.439-12.98-8.736-15.764-7.518-3.323-15.48-6.407-23.543-7.573-15.932-2.305-31.312.043-44.404 10.553-11.796 9.469-14.715 28.117-6.354 39.61 5.897 8.106 14.885 10.11 23.897 12.108 4.216.934 8.583 1.6 12.502 3.276 1.956.837 3.059 3.67 4.548 5.601-2.207 1.396-4.339 3.765-6.64 3.942-2.963.228-6.122-1.123-9.084-2.126-2.669-.904-5.132-2.402-7.78-3.385-8.766-3.255-17.572-.308-21.653 7.128-4.633 8.443-2.733 17.78 5.064 23.517 2.656 1.955 5.764 3.296 8.888 5.11.177.108.367.144 1.36.277.493.213.986.426 1.68.787 0 0 .486.066 1.186.24 1.126.418 2.252.835 3.408 1.788.08.35.161.701.193 1.828-1.904 6.434-3.267-1.572-5.39.143l-1.54 6.356c-1.438-1.234-2.418-2.077-3.401-2.916-4.4-3.75-8.681-7.656-13.246-11.195-3.097-2.401-5.883-1.736-7.526 2.075a649 649 0 0 0-2.704 6.396c-1.697 4.055-3.387 8.114-5.264 11.612a4.1 4.1 0 0 1-.967-1.114s-.298-.221-.508-.858c-1.929-2.005-3.162-1.914-3.107 1.158.038 2.147.329 4.29.462 5.89l-6.317-4.398.365 5.275-2.967-.225c0 1.72 0 3.23-.641 4.565-3.384-2.87-6.767-5.74-9.524-8.877 21.124-10.877 31.298-28.331 29.984-51.913-.756-13.553-5.957-25.891-14.057-36.813-10.449-14.087-24.783-20.053-41.936-17.752-19.589 2.63-37.54 10.221-53.832 21.31-12.043 8.196-13.88 19.89-5.842 32.105 9.8 14.892 15.571 31.135 16.858 48.98 1.094 15.165 14.495 23.741 28.925 18.741 2.66-.921 5.404-1.597 8.32-2.062.256-.175.512-.35 1.363-.836a42 42 0 0 1 3.994-.637c.437-.736.873-1.473 2.097-2.425.783.15 1.567.3 2.475 1.123 1.937 2.753 3.875 5.507 5.068 8.32-4.322.208-1.098 2.617-1.904 4.104-.48.028-.96.056-1.928-.384l-8.326-6.034-1.852 1.43c1.93 3.803 3.859 7.607 4.898 11.33l-5.104-2.991c0 2.643 0 5.086-.64 7.319-1.31-1.243-2.622-2.485-3.78-3.582-1.56.633-2.99 1.791-4.208 1.6-3.984-.626-3.615 1.67-2.92 4.004.642 2.152 1.713 4.176 1.908 6.78l-4.377-1.63-1.134.865c.819 1.733 1.638 3.467 1.497 5.05-8.306-1.94-16.137-6.18-25.089-5.048 8.891 2.474 17.782 4.948 26.753 7.886 0 0 .161.443-.263.96l-3.21 1.528c.83.907 1.66 1.814 2.694 2.965 0 0 .318.028.65.547.364.175.727.35 1.33.963.251.247.554.368 1.204.866.52.215 1.041.43 1.533.556 0 0-.079.049-.369.615-.84.097-1.68.194-3.068-.171l-4.323.792c.506.689 1.011 1.378 1.898 2.52.557.175 1.113.352 1.999.954.31.422.619.843.512 1.796-4.302 2.115-1.523 3.746.411 5.469 0 0-.037-.027-.613.159.226.56.452 1.12 1.163 1.912.35.067.701.135 1.41.604.324.15.65.298.52.978l-7.75 2.444c2.83.998 4.442 1.567 6.112 2.796.044.66.089 1.32-.436 2.2-.404.05-.807.102-1.797.025.023.701.046 1.403.65 2.455 1.614.72 3.23 1.439 4.694 2.205 0 0-.07.141-.978.125-5.727.433-11.453.865-18.08 1.192l-21.099.956.087.801c7.367 0 14.734 0 23.025.151 5.712-.274 11.424-.548 17.85-.696.725.043 1.449.086 2.18.78.62 1.354 1.24 2.707 2.375 4.629l3.66.38c1.513 1.825 2.283 2.755 3.737 3.85.81.33 1.62.66 2.152 1.612-1.419 3.96 2.16 4.084 4.139 5.442 0 0 .025-.012.13.594.644.434 1.289.868 2.7 1.04 3.706-.495 7.413-.99 11.096-.836l-1.216 2.124c1.51 0 2.907 0 4.756.548 1.76.89 3.518 1.78 6.109 2.698 3.47-1.393 6.941-2.786 11.353-4.152.94.032 1.879.063 2.75.516 0 0-.103.415-.742.71l-.803 3.635c1.28.083 2.994.734 3.759.147 2.814-2.16 5.314-4.731 8.476-7.406.246-.537.492-1.073 1.288-1.612.367.001.734.002 1.412.62 1.545 1.503 3.034 3.07 4.645 4.5 8.074 7.168 17.299 9.143 27.253 4.94 3.784-1.597 6.916-4.736 10.36-7.183 9.688 12.24 22.276 11.598 30.599 5.684 3.984-2.83 6.613-7.568 10.468-11.144 3.525 3.533 7.05 7.065 10.86 11.13.548.218 1.095.435 1.703.488 0 0-.102.142.284.708 4.34 2.118 6.979.127 9.558-3.818 1.743-.991 3.487-1.983 5.958-3.161 3.757.022 7.514.044 12.097.118h9.662l.24-1.492-8.416-4.892.392-1.126h17.386l.14-.954-6.864-2.133.146-.757 12.55-1.894c-2.7-1.195-4.455-1.972-6.12-3.252.04-.166.08-.332 1.044-.426l45.75 1.461.063-1.526c-12.927-.656-25.853-1.313-38.671-2.689l5.814-3.234c-5.29-1.55-9.564-2.801-13.483-4.665 1.607-.365 3.213-.73 5.196-1.087 0 0 .326-.188.996-.13.422-.134.845-.268 1.904-.337.807-.25 1.615-.5 2.936-.699.155-.074.31-.148 1.04-.164.509-.232 1.017-.463 2.213-.712l3.561-2.026c-.457-.328-.915-.656-1.638-1.527-.56-.836-1.118-1.672-.821-2.62l25.587-2.237c-2.279-1.003-4.53-1.167-6.748-.973-7.308.64-14.605 1.41-22.586 2.093-.458-.021-.916-.042-1.32-.785 1.075-.88 2.26-1.655 3.197-2.662 1.374-1.476 2.151-3.011-1.016-4.27l3.696-6.254c-3.26 0-6.524 0-9.449-.639 2.622-1.015 5.244-2.03 8.654-3.12l18.51-5.836-.44-1.525c-6.333 1.812-12.666 3.623-19.632 5.262-.43-.08-.86-.162-1.273-.573 0 0 .053-.326.693-.548l3.969-3.305-3.094-4.554c-1.809.622-3.652 1.254-5.562 1.135l4.7-14.505-1.618-.702c-1.377.988-2.754 1.976-4.495 2.363-1.222.207-2.444.414-4.282.909-4.373 3.557-8.745 7.115-13.322 9.523-.08-.38-.161-.76.007-1.752 1.6-1.89 3.36-3.67 4.769-5.693 3.01-4.325 6.704-8.41 6.358-14.787l1.772-1.643c-2.222-.136-4.042-.247-6.571-.226-1.457.774-2.915 1.547-4.769 1.698l.831-4.484-4.522 2.604c0-1.212 0-1.857.351-3.251l1.004-5.666c-5.534-2.501-12.048 4.26-15.856-3.287-1.15.607-2.301 1.213-3.66 1.096l.307-3.996c4.409-.859 7.48-1.457 10.764-1.988 0 0 .182-.127.888-.144.606-.331 1.213-.662 2.086-.947 0 0 .202-.18.824-.257.322-.252.645-.504 1.206-.679 0 0 .193-.16.821-.253.322-.263.643-.526 1.182-.686 0 0 .208-.118.842-.15.514-.328 1.029-.657 1.392-.96 0 0 .155.003.813-.004.762-.378 1.523-.757 2.16-1.25 0 0 .077.15.934.144 5.309-.003 10.617-.007 15.952-.14 0 0-.093.094.264.593.575.185 1.15.37 2.02.944.442.192.883.384 1.61 1.08.333.176.666.352 1.048.379 0 0-.11.112.053.612.29.18.58.36.975.416 0 0-.148.065-.001.634.281.265.563.53.827 1.06 0 0 .194.183.285.774.259.296.517.592.744 1.178 0 0 .177.231.224.844.243.32.487.639.637 1.192 0 0 .15.202.168.896.304.61.608 1.218.806 2.075 0 0 .15.223.13 1.027.68 2.128 1.36 4.256 2.15 6.21 0 0-.15.14-.154.812.333.569.665 1.137.982 1.978 0 0 .193.192.288.796.266.3.532.6.88 1.383.306.367.611.735 1.096 1.628.305.19.611.382.955.465 0 0-.1.056.051.58.304.176.609.352.965.423 0 0-.106.05.086.564.314.166.628.332 1.222.925.456.21.911.421 1.79 1.135.616.184 1.231.367 1.955.427 0 0-.145.076.36.65 4.026 1.496 8.023 2.399 11.69-.689 0 0 .092.136.7.096.459-.363.918-.727 1.302-1.17 0 0 .03.105.603-.007a4.6 4.6 0 0 1 1.111-.899s.212-.245.757-.391c.288-.464.576-.928.758-1.505 0 0 .092.102.572-.074.154-.293.308-.586.304-1.172 0 0 .137.302.628.098.142-.314.284-.629.314-.999M188.16 447.16s.295.282.188.99c-.285.78-.521 1.581-.86 2.336-3.387 7.529-3.944 7.73-11.945 5.643-1.082-.282-3.082.066-3.49.785-.573 1.01-.516 2.898.076 3.962 3.012 5.409 11 7.011 15.485 2.454 9.248-9.396 12.294-21.364 12.053-34.223-.026-1.362-1.988-2.688-3.051-4.03-1.282 1.14-3.025 2.047-3.745 3.472-1.333 2.64-1.71 5.795-3.205 8.307-.75 1.259-3.083 1.575-4.7 2.318-.505-1.53-1.528-3.1-1.41-4.578.265-3.28 1.313-6.495 1.597-9.775.105-1.212-1.035-2.532-1.608-3.803-1.403.66-3.596.97-4.07 2.042-1.923 4.343-4.138 8.832-4.633 13.44-.361 3.368.986 7.606 3.035 10.373 2.606 3.518 6.622 1.559 10.283.287M97.852 329.244c-7.937 5.073-10.13 14.144-4.5 21.964 6.907 9.593 16.035 16.434 27.993 18.58 11.165 2.002 21.095-2.385 25.714-11.054 4.323-8.113 2.41-16.418-5.764-25.26-1.692-1.83-3.704-3.558-4.75-5.727-.78-1.615-.238-3.867-.285-5.836 2.278.24 4.927-.148 6.725.909 1.638.963 2.33 3.51 3.481 5.333 2.615 4.14 6.284 5.416 10.664 3.746 6.552-2.5 9.861-11.196 5.373-16.536-8.338-9.918-18.472-17.34-32.278-17.408-8.79-.043-15.99 4.71-18.89 12.182-2.669 6.872-.48 15.009 5.65 20.898 1.679 1.612 3.923 2.89 4.974 4.827 1.008 1.859.805 4.375 1.134 6.602-2.297-.305-5.25.171-6.747-1.087-2.732-2.295-4.581-5.633-6.835-8.507-2.827-3.604-6.395-5.181-11.659-3.626m303.185 31.275c.654-.755 1.347-1.479 1.955-2.269 6.424-8.348 7.078-17.412 1.852-25.453-4.782-7.359-11.684-9.487-22.465-7.039-2.75.625-5.59 1.483-8.325 1.296-1.662-.114-3.2-2.024-4.795-3.128 1.211-1.387 2.182-3.491 3.688-3.997 2.442-.82 5.243-.519 7.879-.816 6.867-.776 9.804-5.827 7.13-12.165-2.388-5.66-6.667-7.694-14.047-6.186-13.203 2.7-24.4 8.38-28.929 22.206-3.81 11.634 4.22 22.758 16.45 22.76 4.56 0 9.126-1.483 13.679-2.345 2.707-.513 6.044-1.149 6.373 2.37.148 1.582-2.671 4.276-4.68 5.025-2.857 1.065-6.27.514-9.335 1.17-4.94 1.059-7.639 4.58-8.43 9.4-.777 4.732 1.763 9.759 6.43 11.19 3.663 1.124 7.924 1.588 11.661.914 9.002-1.622 17.012-5.646 23.91-12.933M269.99 406.935c8.893.218 13.25-4.122 11.919-12.848-.663-4.344-2.877-8.441-4.303-12.68-2.85-8.466-6.28-16.805-8.277-25.472-2.012-8.731-7.781-14.633-17.555-15.577-6.523-.631-11.02 3.406-13.913 12.497-.252.793-.545 1.58-.714 2.391-2.149 10.326-7.132 19.278-13.214 27.744-1.732 2.41-3.389 5.007-4.414 7.765-2.097 5.648-.513 11.422 3.367 14.03 4.743 3.186 10.192 2.617 15.123-1.676 1.503-1.309 2.827-2.823 4.257-4.217 5.849-5.703 13.864-4.96 19.057 1.305 2.147 2.591 5.226 4.41 8.667 6.738m-89.65-45.273c-2.736 5.692-5.66 11.303-8.16 17.097-3.128 7.246-.28 15.103 6.13 17.823 6.8 2.885 13.836-.16 16.717-8.04 1.679-4.594 2.208-9.647 2.919-14.542.522-3.6.171-7.336.798-10.908.943-5.372 3.422-6.918 8.872-6.165 1.475.204 2.915.656 4.377.969 7.01 1.498 11.635-.907 13.811-7.17 2.177-6.265.369-10.572-6.18-13.75-12.874-6.245-26.653-9.281-40.783-10.689-6.59-.656-11.423 3.034-12.668 8.801-1.142 5.29 1.507 8.935 8.459 11.638 8.675 3.374 9.508 5.329 5.708 14.936m142.313-4.037c-1.174-6.084-.337-7.595 5.404-9.801 1.709-.657 3.485-1.192 5.095-2.04 4.6-2.42 6.553-7.358 5.216-12.804-1.2-4.884-4.216-7.297-9.96-7.1-15.325.526-29.24 5.865-42.53 13.086-1.131.615-2.123 1.65-2.92 2.688-2.947 3.836-2.91 8.058-.995 12.25 1.812 3.965 5.376 4.625 9.28 4.228 1.984-.201 3.962-.483 5.936-.782 5.695-.863 7.643.13 9.02 5.833 1.322 5.48 1.925 11.128 2.972 16.678.675 3.577 1.112 7.303 2.483 10.62 2.428 5.87 8.08 8.325 13.902 6.706 6.205-1.726 9.908-6.758 8.956-13.12-.532-3.553-1.725-7.128-3.275-10.38-2.497-5.242-5.536-10.226-8.584-16.062m-67.092 68.308c-1.59-1.281-3.633-3.9-4.669-3.55-1.846.627-3.779 2.807-4.458 4.76-3.416 9.818-3.632 19.892-.925 29.911.43 1.593 2.35 2.784 3.58 4.16.98-1.423 2.464-2.726 2.838-4.293.845-3.54 1.142-7.21 1.82-11.939l7.714 15.998c6.38-6.297 5.235-13.91 7.833-20.849 2.023 7.528 1.876 14.971 6.84 21.823 1.214-1.94 2.412-3.039 2.608-4.294 1.695-10.85 1.032-21.571-2.984-31.849-.73-1.87-3.094-4.204-4.793-4.278-1.63-.07-3.882 2.213-4.958 4.004-1.968 3.276-3.271 6.951-5.066 10.936-1.873-3.718-3.431-6.812-5.38-10.54m-97.946-14.844c-3.025 7.736-6.166 15.43-8.97 23.246-.494 1.38-.165 3.813.783 4.82 4.096 4.348 13.966 5.146 18.592 1.552 1.616-1.255 3.396-3.272 3.621-5.122.37-3.028-.472-6.205-.829-9.564 6.39-3.38 9.582-7.455 9.009-11.874-.59-4.546-4.328-7.517-10.931-8.558-4.645-.733-9.121-.93-11.275 5.5m81.414 10.39c-2.149 2.245-4.33 4.462-6.438 6.744-2.265 2.45-4.462 4.963-6.689 7.448-.5-3.754.295-6.93-.048-9.979-.251-2.24-1.694-5.879-3.13-6.152-3.515-.67-4.277 2.697-4.73 5.614-1.244 8.031-2.687 16.038-3.686 24.1-.415 3.343-2.252 8.32 2.923 9.119 4.87.75 4.862-4.261 5.893-7.66.626-2.063 1.682-3.994 2.545-5.984 3.187 4.6 4.657 9.01 6.927 12.96.905 1.574 3.578 2.133 5.445 3.155.527-1.926 1.842-4.047 1.424-5.74-1.026-4.155-2.706-8.175-4.41-12.126-.979-2.272-.624-3.64.943-5.65 2.603-3.341 4.69-7.158 6.517-11.002 1.117-2.352.5-4.654-3.486-4.847m56.039 14.203c-.871 1.123-1.596 2.41-2.641 3.336-2.458 2.18-5.324 3.949-7.55 6.329-2.473 2.646-2.226 5.824-.001 8.658 2.248 2.865 5.192 4.292 8.784 2.93 2.086-.792 3.966-2.13 4.934-2.665 2.43.844 4.8 2.402 5.663 1.8 1.416-.987 2.87-3.6 2.53-5.135-1.42-6.43-2.746-13.07-5.53-18.962-3.44-7.278-13.703-7.413-18.156-.651-.971 1.473-.504 3.894-.7 5.879 1.763-.302 3.756-.185 5.235-1.001 2.3-1.268 4.165-3.622 7.432-.518m15.494 3.685c-2.496 3.882-2.524 7.545 1.183 10.684 3.854 3.262 7.362 2.544 13.09-2.18 2.086.646 3.93 1.783 5.524 1.503.988-.173 2.421-2.614 2.247-3.837-1.163-8.17-3.437-16.092-9.524-22.032-5.132-5.008-15.313-1.958-17.116 4.922-.346 1.32.172 3.338 1.07 4.328.499.55 2.711-.122 3.954-.682.998-.449 1.606-1.691 2.549-2.35 2.636-1.839 4.87-1.798 6.36 1.827-1.588 1.063-3.17 1.96-4.557 3.094-1.537 1.257-2.897 2.731-4.78 4.723m38.412-24.932c-5.663-3.175-9.117-1.809-12.031 4.166-2.195-.513-4.399-1.675-6.12-1.175-.96.279-2.021 3.682-1.477 5.062a213 213 0 0 0 8.865 19.479c.649 1.256 3.14 1.56 4.78 2.304.473-1.787 1.554-3.674 1.281-5.339-.476-2.912-1.821-5.675-2.735-8.523-1.842-5.74-.629-7.98 5.081-9.751 2.783-.864 4.39-2.448 2.356-6.223M94.803 248.028c.44-1.734 1.256-3.469 1.249-5.2-.018-4.262-3.138-7.321-7.514-7.824s-8.36 2.022-9.65 6.119c-1.248 3.956.463 8.382 4.234 10.07 4.257 1.906 8.08.97 11.68-3.165m318.576-3.713c-.98 6.518 1.56 10.921 6.74 11.679 4.324.632 8.609-1.901 9.587-6.052.997-4.232-.02-7.91-4.148-10.145-4.25-2.301-8.319-.971-12.179 4.518"/><path fill="#EF6C0D" d="M148.997 206.069c-2.705.79-5.45 1.465-8.109 2.386-14.43 5-27.831-3.576-28.925-18.741-1.287-17.845-7.057-34.088-16.858-48.98-8.039-12.216-6.2-23.909 5.842-32.105 16.291-11.089 34.243-18.68 53.832-21.31 17.153-2.301 31.487 3.665 41.936 17.752 8.1 10.922 13.301 23.26 14.057 36.813 1.314 23.582-8.86 41.036-30.653 52.025-1.491.714-2.314 1.315-3.506 1.974-1.115.03-1.862 0-2.782-.232-.64.084-1.105.37-1.69.617-.121-.041.12.058-.257-.034-1.583.433-2.788.958-4.043 1.847-.008.604.033.846.065 1.292-.008.205-.027.616-.396.627-.857.061-1.346.112-2.192.165-2.36.94-4.362 1.879-6.338 2.827.027.009.032-.047.032-.047-.783-.15-1.567-.3-3.055-.28-1.174.86-1.644 1.55-2.113 2.239-1.091.218-2.182.435-3.83.79-.71.215-.864.295-1.017.375m17.755-68.204c-1.395-2.452-2.577-5.06-4.225-7.327-4.863-6.688-11.605-8.697-19.369-6.029-6.459 2.22-8.634 5.922-6.272 12.252 3.012 8.076 6.47 15.997 10.018 23.857 1.698 3.762 3.757 8.192 8.655 7.87 5.347-.35 9.787-3.373 12.301-8.275 1.171-2.283 2.146-5.11 1.919-7.571-.436-4.73-1.792-9.375-3.027-14.777"/><path fill="#EE6D0E" d="M238.075 175.906c-.493-.213-.986-.426-1.94-.9-.701-.483-.92-.465-1.121-.209-2.902-1.621-6.01-2.962-8.666-4.917-7.797-5.736-9.697-15.074-5.064-23.517 4.081-7.436 12.887-10.383 21.654-7.128 2.647.983 5.11 2.48 7.78 3.385 2.961 1.003 6.12 2.354 9.084 2.126 2.3-.177 4.432-2.546 6.639-3.942-1.49-1.93-2.592-4.764-4.548-5.601-3.919-1.676-8.286-2.342-12.502-3.276-9.012-1.997-18-4.002-23.897-12.109-8.361-11.492-5.442-30.14 6.354-39.61C244.94 69.7 260.32 67.352 276.252 69.657c8.062 1.166 16.025 4.25 23.543 7.573 6.297 2.783 8.791 9.058 8.736 15.764-.089 10.769-9.356 16.96-19.917 13.475-2.479-.818-4.693-2.445-7.016-3.724-2.47-1.359-4.805-3.062-7.415-4.042-3.184-1.196-6.618-.955-8.08 2.65-1.547 3.813 1.108 6.128 4.321 7.15 5.22 1.661 10.575 2.935 15.92 4.165 24.926 5.738 30.906 32.082 20.67 50.247-1.607 2.85-4.838 4.786-7.917 7.024-7.276-6.903-7.283-6.91-14.358-.597-3.913 3.491-7.797 7.015-11.718 10.561-.025.038.044.095-.02-.207-.371-.572-.679-.842-1.277-1.345-3.358.17-6.426.575-9.66.648-1.47-1.88-2.772-3.43-4.844-5.892-1.015 2.6-1.62 4.146-2.646 5.751-2.484-.405-5.543-.19-6.41-1.466-2.299-3.377-3.62-1.326-5.324.156a68 68 0 0 1-3.786-1.502c-.409-.25-.728-.371-.728-.371z"/><path fill="#EF6C0E" d="M344.04 186.342s-.208.118-.657.046c-.753.236-1.057.544-1.361.852 0 0-.193.16-.644.104-.76.234-1.068.522-1.377.811 0 0-.202.18-.715.09-1.101.292-1.69.673-2.279 1.054 0 0-.182.127-.758-.013-5.15.878-9.674-3.502-14.27-.267-7.152-2.184-11.01-7.351-11.597-14.46-.664-8.025 2.777-14.619 9.356-19.294 6.495-4.614 13.899-8.203 19.607-13.61 9.133-8.65 17-18.62 25.789-27.656 4.427-4.552 9.703-8.28 15.448-12.256 5.534.422 10.213.72 14.893 1.019 0 0 .286-.032.57.325.68.463 1.077.57 1.473.676 0 0 .278-.001.52.353.604.479.964.603 1.324.727.458.226.916.45 1.534 1.246 1.5 1.668 2.838 2.766 4.177 3.864 0 0-.062.044.02.252.341.41.601.613.862.816 0 0 .22.21.193.729.659 1.398 1.345 2.278 2.03 3.157 0 0-.116.063-.11.333.379.735.753 1.2 1.127 1.665 0 0-.121.052-.117.332.376.78.748 1.278 1.12 1.777 0 0 .163.21.054.71.253 1.095.615 1.688.977 2.282 0 0 .147.237.007.866-.284 6.783-.427 12.936-.57 19.089-.01.449-.02.897-.473 1.833-.51 3.703-.58 6.918-.648 10.132.012.453.023.905-.373 1.842-.225 2.759-.041 5.032.143 7.305.098.448.196.897.05 2.03.472 7.444 1.188 14.203 1.904 20.961.128 3.669.257 7.338-.075 11.607-.62 2.006-.78 3.411-.941 4.816 0 0 .086.266-.293.576-.504.986-.63 1.663-.755 2.34 0 0-.02.33-.365.625-.444.665-.541 1.035-.639 1.405 0 0-.015.318-.349.56-.46.557-.586.87-.711 1.184 0 0-.06-.109-.274-.002-.34.436-.466.766-.592 1.096 0 0-.137-.302-.342-.123-.33.51-.454.84-.579 1.17 0 0-.092-.103-.346-.037-.518.572-.784 1.078-1.05 1.585 0 0-.21.245-.674.305-.716.357-.969.654-1.221.95 0 .001-.03-.104-.315-.08-.732.41-1.178.798-1.625 1.186 0 0-.092-.136-.44-.147-4.182.034-8.015.08-11.847.126 0 0 .145-.076-.053-.337-.859-.397-1.52-.533-2.18-.669-.456-.21-.911-.421-1.599-1.106-.548-.638-.865-.801-1.182-.964 0 0 .106-.051.013-.267a4.3 4.3 0 0 0-1.022-.731s.1-.056.01-.279c-.409-.404-.727-.586-1.045-.768-.306-.367-.611-.735-.97-1.663-.344-.849-.633-1.137-.922-1.426 0 0-.193-.192-.118-.695-.301-1.051-.677-1.6-1.053-2.148 0 0 .15-.138.175-.45-.701-2.441-1.428-4.572-2.155-6.703 0 0-.15-.223-.022-.72-.232-1.088-.593-1.68-.953-2.272 0 0-.149-.202-.086-.641-.207-.748-.477-1.057-.747-1.366 0 0-.177-.231-.17-.69-.275-.743-.558-1.027-.842-1.31 0 0-.194-.183-.195-.638-.325-.695-.649-.934-.973-1.174 0 0 .148-.065.053-.282-.41-.377-.727-.538-1.044-.7 0 0 .11-.111 0-.336-.482-.369-.852-.513-1.223-.658-.44-.192-.882-.384-1.599-1.074-.884-.648-1.493-.796-2.102-.945 0 0 .093-.094-.11-.37-5.777-2.566-11.265-2.807-16.606.422 0 0-.076-.15-.375-.165-1.04.414-1.78.843-2.52 1.272 0 0-.155-.004-.42-.097-.764.3-1.263.693-1.761 1.086m36.264-37.705c-2.125-2.807-5.074-4.5-8.101-2.423-2.175 1.492-4.709 4.558-4.558 6.748.148 2.16 3.112 5.043 5.477 5.95 5.815 2.231 8.843-1.836 7.182-10.275"/><path fill="#E86E14" d="M306.965 304.018c-3.524-3.533-7.05-7.065-10.894-11.037-.874-1.178-1.428-1.917-2.102-2.997-3.419-3.844-6.718-7.346-10.924-11.81 3.43 1.067 5.827 1.812 8.351 2.814.464 1.332.8 2.41 1.462 4.537l4.4-4.405c-4.29-2.757-7.577-4.854-10.844-6.982-.544-.354-1.003-.838-1.54-1.526-.317-.71-.594-1.156-1.042-1.853-.557-.335-.942-.42-1.67-.457-1.9-1.27-3.46-2.59-5.078-4.256-.737-1.248-1.414-2.148-2.082-3.315.017-.444.026-.621.383-.784 1.698-.285 3.047-.585 4.562-.583 11.997 14.97 36.604 14.222 47.276-1.16 6.579-9.483 5.592-19.422 1.773-29.785 1.427-3.496 2.695-6.711 4.295-10.766-6.392 3.68-6.39 3.676-12.068 1.606-.297-.108-.656-.046-1.092-.347-.15-.481-.193-.678 0-1.047.983-4.908-2.68.444-3.503-1.643v-4.433c-2.354.895-4.575 1.739-6.985 2.232-2.346-.55-4.502-.751-6.656-.984.002-.032-.06-.017.01-.397.78-3.483 1.493-6.586 2.55-9.624 6.11 3.646 6.106 3.642 10.505-1.767.163-.2.601-.176 1.105.005 1.092 1.251 1.99 2.24 3.15 3.518l4.637-7.87-5.063 1.792 3.159-8.02.825.183v5.623l2.097-2.347 3.452-1.819c3.808 7.548 10.322.786 15.856 3.287-.307 1.732-.655 3.699-1.462 6.223-.643 3.396-.827 6.235-1.328 9.147-4.293 2.543-.892 3.09.521 4.334a54 54 0 0 1-1.817 1.597l.708 1.032a711 711 0 0 0 4.119-2.936c-.015-.004-.016.028.24-.04a2.9 2.9 0 0 0 .758-.952c-.011-.004.004.016.357.028 3.423-2.315 6.494-4.644 9.565-6.973.589 5.884-3.104 9.97-6.115 14.295-1.409 2.024-3.169 3.803-5.225 6.092a50 50 0 0 0-2.512 3.118l.74.81 2.425-1.426c4.373-3.557 8.745-7.115 13.73-10.79.29 2.054-.03 4.224-.35 6.395l1.345.498 3.04-7.083 4.13-2.964 1.619.702c-1.567 4.835-3.134 9.67-5.014 14.907a111 111 0 0 1-4.936 4.513c-.188.463-.172.805-.156 1.147.112-.429.224-.858.71-1.284 1.147-.222 2.029-.28 2.673-.702 4.662-3.046 4.997-2.904 6.07 2.87 0 0-.054.326-.423.595-7.316 3.198-14.262 6.128-21.388 8.908-.576-.008-.972.135-1.355.263.013-.016-.029-.013-.406.011-4.019 1.412-7.66 2.8-11.303 4.187l.447 1.622c2.75-.266 5.499-.533 8.688-.783 8.884-.33 17.328-.675 25.773-1.02 3.014.487 2.237 2.022.863 3.498-.937 1.007-2.122 1.783-3.618 3.062-4.426 1.074-8.429 1.748-12.861 2.419-6.297.877-12.421.818-17.468 4.738 6.645-.938 13.29-1.877 20.298-2.737.858.133 1.352.188 1.925.425.256.39.476.533.986.9 2.411.12 4.574-.05 7.137-.235 1.467-.022 2.534-.026 3.607.34.03.86.052 1.35.075 1.842-.509.232-1.017.463-1.92.521-.65-.02-.905.133-1.16.287-.807.25-1.615.5-2.918.542-1.023.023-1.55.255-2.078.487 0 0-.326.188-1.002.1-6.782.559-12.887 1.207-19.05 1.703-.158-.2-.26-.248-.36-.296.13.158.26.316.682.769 4.812.066 9.333-.161 13.854-.389l13.837 4.053c-2.652 1.475-4.233 2.355-6.318 3.647-2.918.376-5.332.339-8.032.018-7.54-.284-14.796-.284-22.051-.284v1.023l22.31 2.513 6.211 2.749-12.55 1.894-.146.757 6.863 2.133-.14.954H338.73l-.392 1.126 8.415 4.892-.239 1.492c-3.22 0-6.441 0-10.164-.376-9.585-3.525-18.65-6.725-27.79-9.7-.57-.186-1.713 1.383-2.804 2.045-.479-.28-.658-.529-.854-1.048-.479-.31-.857-.411-1.236-.512.087.243.175.487.077 1.016-3 2.692-1.782 4.492.642 6.203 1.834 1.295 3.869 2.466 5.288 4.14 1.163 1.37 2.614 3.61-.82 4.527 0 0 .102-.142-.044-.352-.711-.41-1.277-.61-1.843-.81m-11.439-19.403-.165.655c.136-.14.271-.28.165-.655m28.748-68.474.296-.312c-.098.02-.195.041-.296.312m-1.738-.663s.041.087 0 0"/><path fill="#EE6D10" d="M98.197 329.122c4.919-1.433 8.487.144 11.314 3.748 2.254 2.874 4.103 6.212 6.835 8.507 1.496 1.258 4.45.782 6.747 1.087-.33-2.227-.126-4.743-1.134-6.602-1.051-1.938-3.295-3.215-4.973-4.827-6.13-5.89-8.32-14.026-5.652-20.898 2.901-7.473 10.1-12.225 18.89-12.182 13.807.068 23.94 7.49 32.279 17.408 4.488 5.34 1.18 14.037-5.373 16.536-4.38 1.67-8.049.394-10.664-3.746-1.151-1.823-1.843-4.37-3.481-5.333-1.798-1.057-4.447-.668-6.725-.909.047 1.969-.494 4.22.285 5.836 1.046 2.17 3.058 3.897 4.75 5.726 8.175 8.843 10.087 17.148 5.764 25.261-4.619 8.67-14.55 13.056-25.714 11.053-11.958-2.145-21.086-8.986-27.992-18.579-5.63-7.82-3.438-16.89 4.844-22.086m302.603 31.66c-6.66 7.024-14.67 11.048-23.672 12.67-3.737.674-7.998.21-11.66-.914-4.668-1.431-7.208-6.458-6.43-11.19.79-4.82 3.488-8.341 8.43-9.4 3.064-.656 6.477-.105 9.333-1.17 2.01-.749 4.83-3.443 4.681-5.024-.33-3.52-3.666-2.884-6.373-2.371-4.553.862-9.119 2.345-13.679 2.345-12.23-.002-20.26-11.126-16.45-22.76 4.529-13.827 15.726-19.507 28.929-22.206 7.38-1.508 11.66.526 14.047 6.186 2.674 6.338-.263 11.39-7.13 12.165-2.636.297-5.437-.003-7.879.816-1.506.506-2.477 2.61-3.688 3.997 1.594 1.104 3.133 3.014 4.795 3.128 2.735.187 5.576-.671 8.325-1.296 10.781-2.448 17.683-.32 22.465 7.04 5.226 8.04 4.572 17.104-1.852 25.452-.608.79-1.301 1.514-2.193 2.532m-131.201 46.075c-3.048-2.25-6.127-4.069-8.274-6.66-5.193-6.265-13.208-7.008-19.057-1.305-1.43 1.394-2.754 2.908-4.257 4.217-4.93 4.293-10.38 4.862-15.123 1.675-3.88-2.607-5.464-8.38-3.367-14.029 1.025-2.758 2.682-5.355 4.414-7.765 6.082-8.466 11.065-17.418 13.214-27.744.169-.811.462-1.598.714-2.391 2.893-9.09 7.39-13.128 13.913-12.497 9.774.944 15.543 6.846 17.555 15.577 1.997 8.667 5.427 17.006 8.277 25.473 1.426 4.238 3.64 8.335 4.303 12.679 1.331 8.726-3.026 13.066-12.312 12.77m-19.636-28.539c1.96-1.052 4.231-1.81 5.687-3.342.425-.446-1.103-3.903-2.418-4.517-1.264-.59-4.041.17-5.033 1.31-1.761 2.026-1.736 4.612 1.764 6.55M180.514 361.3c3.627-9.245 2.794-11.2-5.881-14.574-6.952-2.703-9.6-6.348-8.459-11.638 1.245-5.767 6.078-9.457 12.668-8.8 14.13 1.407 27.909 4.443 40.782 10.688 6.55 3.178 8.358 7.485 6.181 13.75-2.176 6.263-6.801 8.668-13.811 7.17-1.462-.313-2.902-.765-4.377-.969-5.45-.753-7.929.793-8.872 6.165-.627 3.572-.276 7.308-.798 10.908-.711 4.895-1.24 9.948-2.92 14.541-2.88 7.881-9.917 10.926-16.715 8.041-6.41-2.72-9.259-10.577-6.131-17.823 2.5-5.794 5.424-11.405 8.333-17.459"/><path fill="#ED6D10" d="M322.773 357.997c2.929 5.464 5.968 10.448 8.465 15.69 1.55 3.252 2.743 6.827 3.275 10.38.952 6.362-2.75 11.394-8.956 13.12-5.822 1.62-11.474-.835-13.902-6.706-1.371-3.317-1.808-7.043-2.483-10.62-1.047-5.55-1.65-11.199-2.972-16.678-1.377-5.704-3.325-6.696-9.02-5.833-1.974.3-3.952.58-5.937.782-3.903.397-7.467-.263-9.279-4.228-1.916-4.192-1.952-8.414.995-12.25.797-1.038 1.789-2.073 2.92-2.688 13.29-7.22 27.205-12.56 42.53-13.086 5.744-.197 8.76 2.216 9.96 7.1 1.337 5.446-.616 10.383-5.216 12.804-1.61.848-3.386 1.383-5.095 2.04-5.741 2.206-6.578 3.717-5.285 10.173M202.727 191.046s.298.221.402.703c.419.718.733.954 1.048 1.19 1.692-4.056 3.382-8.115 5.079-12.17a649 649 0 0 1 2.704-6.396c1.643-3.811 4.429-4.476 7.526-2.075 4.565 3.539 8.845 7.445 13.246 11.195.983.839 1.963 1.682 3.402 2.916l1.54-6.356c2.122-1.715 3.485 6.291 5.775-.568 1.28.162 2.724.57 2.978 1.362 1.639 5.113 3.18 10.272 4.375 15.502.325 1.42 1.625 4.21-1.927 4.297.62 1.045 1.241 2.09 1.61 3.497-.384 2.61-.811 4.889-.595 7.104.963 9.866 2.11 19.714 3.197 29.91.642.84 1.277 1.34 1.912 1.84.001.003.006.004.002.469-.005 3.58.193 6.716-.103 9.804-.124 1.297-1.293 2.493-2.12 3.536-.135-.2-.352-.63-.185-.963.268-1.6.52-2.884.367-4.119-.04-.324-1.336-.493-2.336-.597-1.06.383-1.84.629-3.022.874-3.137-1.336-5.872-2.67-8.606-4.445-.338-3.148-.678-5.858-1.167-8.88-.308-1.444-.467-2.576-.491-3.818-.016-.36-.167-.608-.408-1.027-.09-.17-.037-.55 0-.976-1.73-5.57-3.494-10.713-5.427-16.145-.262-.492-.355-.694-.475-1.124-.027-.227-.103-.68-.07-.65.033.029-.055.02.134-.052.056-.35-.078-.629-.369-1.222-1.682-3.761-3.206-7.207-4.76-11.012-1.838-3.504-3.648-6.65-5.458-9.795l-1.32.866c1.273 2.77 2.547 5.538 3.486 8.384-1.01-.157-1.689-.392-3.832-1.136 3.51 6.199 6.31 11.143 9.145 16.457.649 2.443 1.262 4.516 1.518 6.576-2.746-1.666-5.134-3.32-7.515-5.349-1.258-3.096-2.523-5.815-3.788-8.534l-1.271.182c-.365 2.285-.73 4.57-1.366 6.81-.728-.33-1.185-.613-1.726-1.234-.694-1.509-1.303-2.679-1.878-3.864.034-.016-.013.042.018-.37-.38-2.129-.788-3.843-1.466-5.563-.628-.007-.986-.01-1.641.153-.162 1.36-.028 2.557.176 4.08.085.77.099 1.214-.284 1.705-2.29.897-4.181 1.748-6.385 2.495a31 31 0 0 1-3.502-3.606 4.2 4.2 0 0 0-.87-.91c-.004.003.002-.003-.02-.308a6.7 6.7 0 0 0-1.131-1.572c0 .043-.078.076-.186-.236-.612-1.235-1.116-2.159-2.147-4.047 6.716 2.978 6.702 2.798 6.611-3.34-.046-3.14 1.028-6.298 1.596-9.448"/><path fill="#EF6C0D" d="M275.036 261.932c-.008.178-.017.355-.465.8-1.889.324-3.337.38-4.73.418.056-.018.042.098-.064-.269-.913-.866-1.687-1.727-2.534-1.807-5.596-.524-8.475-2.98-8.624-9.102-.073-3.018-2.34-5.982-3.614-8.97 0 0-.005-.002-.007-.365-.027-.845-.052-1.326-.078-2.116.041-.715.084-1.122.384-1.765.093-1.737-.072-3.24-.275-5.142a115 115 0 0 1-.086-4.794c-.25-1.507-.529-2.637-.87-4.118a33 33 0 0 1-.15-2.794c-.255-.83-.528-1.349-.877-2.248-.089-1.417-.102-2.453-.09-3.944.6-3.412 1.456-6.353 1.631-9.334.085-1.443-1.11-2.96-1.726-4.884.008-3.343.016-6.245.06-9.613.049-.96-.106-1.55.107-1.935.74-1.343 1.606-2.615 2.424-3.914.853 1.262 1.745 2.5 2.543 3.794.412.668.66 1.438 1.037 2.571.375 3.805.694 7.2.658 10.655-3.288 3.174-.684 4.977 1.386 7.103.274.392.473.571 1.122.745 7.476 1.011 7.476 1.011 8.718-5.628.496-1.333.932-2.343 1.547-3.507.376-.425.464-.727.42-1.353.048-.676.119-1.06.449-1.69.12-2.052-.019-3.856-.232-6-.066-.8-.057-1.263.305-1.796 1.45-2.063 2.549-4.053 3.846-6.051.2-.008.59.078.84-.002.467-.345.685-.609.905-.875.003-.003.008-.008.232-.123.398-.395.573-.675.826-1.24a9 9 0 0 1 1.347-1.788c.394-.311.535-.552.6-.844-.002-.008.012-.005.241-.135.389-.438.548-.745.782-1.328a8.4 8.4 0 0 1 1.352-1.688c.41-.314.555-.561.622-.856.002 0 .002-.005.227-.117.397-.393.57-.673.756-.922.014.031-.052.01.197-.11.418-.44.587-.758.871-1.355 1.032-1.028 1.948-1.778 3.177-2.535.808-.339 1.302-.67 2.157-1.115a18.2 18.2 0 0 1 4.617 2.56c.401.711.767 1.13 1.133 1.548 0 0-.086.016-.074.303.368.788.724 1.29 1.08 1.792 0 0 .121.187.09.597.24.728.51 1.046.779 1.364 0 0 .23.215.17.738.294 1.106.646 1.69.998 2.274 0 0 .151.233.032.759.237 1.43.594 2.333.951 3.237 0 0 .144.273.026.768.192 1.402.503 2.309.813 3.215.463.28.927.558 1.768 1.114l1.22.896s.014-.011.03.35c2.72 2.73 2.874.718 2.986-1.367 0 0-.001.007.257.023.433.005.607-.007.782-.019 0 0 .46.066.693.483.249 1.124.265 1.83.387 2.8.377.76.648 1.259.92 2.11 1.021 5.183 2.571 1.336 4.26.598.763.011 1.2.017 1.648.276.022.424.03.593.041.997.001.235 0 .705-.248.892-.424 1.738-.601 3.288-.779 4.839-.31.08-.748.056-.911.256-4.399 5.41-4.394 5.413-10.837 1.763-1.208.29-1.738.647-2.507 1.18-.38.738-.523 1.3-.682 1.833-.016-.03.032.02-.402.005-2.167-.017-3.9-.019-5.962-.024-.771-.001-1.212.002-2.016-.002-1.31-.952-2.384-1.803-3.163-2.87-.67-.917-1.003-2.08-1.505-3.43-.34-.767-.659-1.235-.94-2.065 1.714-4.168 3.39-7.977 5.065-11.785l-2.173-.967q-2.464 5.049-4.929 10.108c.001.007-.013.009-.248.149-.38.468-.524.797-.711 1.427-.413 1.02-.783 1.737-1.354 2.577-.443.345-.585.62-.606.914.02-.031.05.038-.344.048-1.148 2.371-1.902 4.732-2.696 7.432-.457 1.4-.872 2.46-1.472 3.666-.394.4-.497.694-.495 1.229-.003.204-.15.584-.389.773-.366.777-.493 1.365-.61 2.162.007.21-.068.621-.34.879-.311 1.235-.35 2.213-.368 3.355.022.164-.127.461-.389.551-.188.676-.114 1.262-.002 2.09.04.242.059.731-.07 1.032-.104.73-.08 1.161-.157 1.851-.276.789-.45 1.318-.874 1.96-.446.414-.644.713-.83 1.444.01 2.74.01 5.047-.01 7.75a69 69 0 0 0 1.34 6.056c.17 1.131.178 1.907-.02 3.03-.244 5.087-.282 9.825-.32 14.562"/><path fill="#EC6C0F" d="M238.995 247.995c2.735 1.335 5.47 2.67 8.57 4.364-.237 2.174-.836 3.99-1.456 5.763-.02-.041.072-.046-.204.063-.5.634-.724 1.16-1.005 1.937-.314.468-.571.684-1.077 1.023-.415.445-.58.768-.789 1.295-.177.474-.392.638-1.087.66-1.153.72-1.905 1.476-2.706 2.184-.049-.048.084-.078-.206-.038-.543.527-.797 1.014-1.261 1.657-.548.181-.886.208-1.55.287-.572.391-.82.728-1.075 1.008-.008-.058.1-.014-.182.04-.488.362-.693.67-1.042 1.185-.456.314-.768.42-1.338.55-.683.277-1.109.53-1.828.958-1.591.518-2.89.861-4.508 1.24-.634.31-.948.582-1.355.952-.092.098-.343.002-.67.06-.606.38-.885.703-1.224 1.237-.23.482-.475.63-1.148.676a320 320 0 0 0-15.884 10.152c-.024.423-.014.592.02.766.025.005.037-.044-.36-.063a497 497 0 0 0-17.362 6.662c-.248.1-.192.953-.153 1.711.395.758.667 1.259.67 1.935-1.427.647-2.587 1.119-3.764 1.26-.415-1.128-1.082-2.655-1.172-2.621-2.669.988-5.28 2.13-7.901 3.249-3.707.494-7.414.99-11.584 1.315-1.09-.605-1.715-1.041-2.341-1.477 0 0-.025.012.061-.353 2.38-1.905 4.674-3.444 6.969-4.983l-.884-1.496-10.032.778c-.81-.329-1.62-.658-2.725-1.42.777-1.44 2.336-3.511 2.84-3.28 3.68 1.684 4.8-1.516 7.072-3.193.267-.713.425-1.745.143-1.885-1.096-.54-2.331-.797-3.056-1.216 4.2-.295 7.96-.364 11.668-.844 1.684-.218 3.263-1.249 4.64-2.248-4.716-.836-9.175-1.48-13.655-1.718-.988-.052-2.053 1.338-3.241 2.1-.159.034-.45-.109-.948-.146-3.494-.053-6.534.218-9.467-.223-1.252-.188-2.279-1.866-3.195-2.903.212-.036.643-.015 1.078.008 3.258-.334 6.08-.692 9.339-1.074 3.352-.007 6.268.01 9.504.04.836-.297 1.351-.608 1.67-1.209-1.726-.835-3.257-1.381-4.793-2.29-.01-1.332-.012-2.301.32-3.349.79-.035 1.246.01 1.813.247.313.429.564.584 1.272.646 2.855.246 5.302.507 7.75.769l.133-.989c-.785-.487-1.57-.974-2.539-1.805-1.454-.517-2.725-.69-4.189-.846-.193.017-.563-.098-.791-.373-1.168-.393-2.108-.512-3.345-.612-.686-.06-1.074-.14-1.673-.462-.842-.34-1.473-.437-2.38-.502-.64-.032-1.003-.094-1.587-.42-1.743-.757-3.266-1.25-4.79-2.157-.002-1.793 0-3.173.262-4.553.428.045.596.091.98.367 1.045.362 1.873.494 3.077.645 1.13-.022 1.883-.062 2.87.18 1.758-.217 3.282-.716 4.806-1.59.002-1.12.004-1.866.274-2.591.44.077.61.134.934.383.426.41.736.51 1.442.493a60 60 0 0 1 6.54 2.456c.492.318.824.425 1.424.435.687-.666 1.108-1.235 1.8-1.797.637.008 1 .01 1.513.222.169.546.188.881.243 1.533.305.629.575.941.952 1.344.106.09.007.353.05.669.328.61.615.905 1.125 1.317.426.57.628 1.023.881 1.777.351.562.651.82.91 1.082-.041.004-.02-.076.056.172.344.454.612.66 1.151.987.745.737 1.218 1.353 1.802 2.177.31.464.568.634.894.714.011-.003.01.019.14.249.438.384.747.538 1.332.728.695.378 1.115.72 1.707 1.301.54.357.907.476 1.514.59.632.252 1.022.508 1.57 1.112.88.518 1.601.687 2.415.794.092-.062.278.06.51.375 4.114.433 7.998.55 11.999.601.118-.066.32.113.71.151 1.302-.282 2.21-.602 3.326-1.063.206-.14.696-.235.696-.235s.448.219.775.201c.657-.28.987-.543 1.424-.917.107-.111.408-.04.776-.014.913-.365 1.458-.756 2.012-1.078.009.07-.127.038.133.008.496-.276.731-.521 1.06-.88.093-.114.38-.052.696-.097.607-.337.896-.63 1.316-1.149.604-.412 1.078-.599 1.837-.838.537-.33.79-.606 1.05-.859.006.024-.032-.008.287-.023.74-.423 1.162-.831 1.59-1.184.006.056-.093.004.294.079 1.808.324 3.229.574 5.531.978 1.054-4.654 2.055-9.075 2.921-13.7-.162-.555-.043-.848.522-1.29.423-1.145.544-2.082.621-3.04-.045-.02-.083-.11.245-.022.55.132.772.175.995.218"/><path fill="#E87017" d="M180.778 255.016c-.364-.002-.727-.003-1.71-.133-11.096-4.08-21.573-8.03-32.207-12.304-1.46-1.442-2.763-2.562-4.013-3.999-.256-.754-.563-1.191-.875-1.595-.004.034.062.054.2-.273-.296-.803-.729-1.28-1.17-1.734-.01.02.033.013.033.013-.882-2.08-1.953-4.105-2.594-6.257-.696-2.333-1.065-4.63 2.919-4.004 1.217.191 2.647-.967 4.209-1.6 1.157 1.097 2.468 2.34 4.127 4.046a366 366 0 0 1 3.831 6.006l6.341-5.731-3.886-4.986-5.788-11.411 1.852-1.43c2.776 2.012 5.55 4.023 8.64 6.604 3.208 4.625 6.103 8.68 8.998 12.736l1.654-1.206-8.319-11.76c.087-1.443-3.137-3.852 1.69-3.767 2.732 4.735 6.168 7.164 11.44 6.776.14.008.421.002.57.33 2.518 3.27 4.888 6.214 7.183 9.475-4.384 8.558-6.138 17.1-3.125 26.204"/><path fill="#F06E10" d="M255.757 426.25c1.754 3.41 3.312 6.505 5.185 10.223 1.795-3.985 3.098-7.66 5.066-10.936 1.076-1.791 3.329-4.075 4.958-4.004 1.699.074 4.062 2.408 4.793 4.278 4.016 10.278 4.679 20.999 2.984 31.85-.196 1.254-1.394 2.353-2.608 4.293-4.964-6.852-4.817-14.295-6.84-21.823-2.598 6.938-1.454 14.552-7.833 20.85l-7.714-15.999c-.678 4.728-.975 8.399-1.82 11.939-.374 1.567-1.858 2.87-2.838 4.294-1.23-1.377-3.15-2.568-3.58-4.16-2.707-10.02-2.491-20.094.925-29.911.68-1.954 2.612-4.134 4.458-4.76 1.036-.352 3.08 2.268 4.864 3.865"/><path fill="#F06D0F" d="M157.774 410.742c1.996-6.083 6.472-5.886 11.117-5.153 6.603 1.041 10.342 4.012 10.93 8.558.574 4.419-2.617 8.495-9.008 11.874.357 3.36 1.198 6.536.83 9.564-.226 1.85-2.006 3.867-3.622 5.122-4.626 3.594-14.496 2.796-18.592-1.553-.948-1.006-1.277-3.44-.782-4.82 2.803-7.815 5.944-15.51 9.127-23.592m11.352 4.498c-5.087-1.171-4.836 2.842-6.303 6.36 3.875-.972 7.454-.984 6.303-6.36m-10.349 15.846.586 2.741c1.486-.6 3.055-1.066 4.392-1.902.302-.188-.202-1.666-.335-2.55-1.443.334-2.887.667-4.643 1.711"/><path fill="#F06E10" d="M239.385 421.383c3.63.29 4.248 2.591 3.13 4.943-1.825 3.844-3.913 7.66-6.516 11.001-1.567 2.01-1.922 3.38-.942 5.65 1.703 3.952 3.383 7.972 4.41 12.127.417 1.693-.898 3.814-1.425 5.74-1.867-1.022-4.54-1.58-5.445-3.156-2.27-3.95-3.74-8.359-6.927-12.96-.863 1.99-1.919 3.922-2.545 5.984-1.031 3.4-1.024 8.412-5.893 7.66-5.175-.797-3.338-5.775-2.923-9.119.999-8.061 2.442-16.068 3.687-24.099.452-2.917 1.214-6.285 4.73-5.614 1.435.273 2.878 3.911 3.13 6.152.342 3.049-.454 6.225.047 9.979 2.227-2.485 4.424-4.998 6.689-7.448a130 130 0 0 1 6.793-6.84"/><path fill="#F06F12" d="M187.876 446.867c-3.377 1.565-7.393 3.524-9.999.006-2.049-2.767-3.396-7.005-3.035-10.373.495-4.608 2.71-9.097 4.633-13.44.474-1.072 2.667-1.382 4.07-2.042.573 1.27 1.713 2.59 1.608 3.803-.284 3.28-1.332 6.495-1.596 9.775-.12 1.478.904 3.049 1.409 4.578 1.617-.743 3.95-1.059 4.7-2.318 1.495-2.512 1.872-5.668 3.205-8.307.72-1.425 2.463-2.332 3.745-3.472 1.063 1.342 3.025 2.668 3.05 4.03.242 12.86-2.804 24.827-12.052 34.223-4.486 4.557-12.473 2.955-15.485-2.454-.592-1.064-.65-2.952-.076-3.962.408-.719 2.408-1.067 3.49-.785 8.001 2.086 8.558 1.886 11.945-5.643.339-.755.575-1.556 1.068-2.88.126-.83.044-1.113-.038-1.397zm106.99-11.537c-3.064-2.752-4.929-.398-7.229.87-1.479.816-3.472.7-5.235 1 .196-1.984-.271-4.405.7-5.878 4.453-6.762 14.716-6.627 18.156.651 2.784 5.891 4.11 12.532 5.53 18.962.34 1.535-1.114 4.148-2.53 5.135-.864.602-3.232-.956-5.663-1.8-.968.536-2.848 1.873-4.934 2.664-3.592 1.363-6.536-.064-8.784-2.929-2.225-2.834-2.472-6.012.002-8.658 2.225-2.38 5.09-4.15 7.549-6.33 1.045-.926 1.77-2.212 2.438-3.688"/><path fill="#F06F13" d="M310.786 439.06c1.66-1.685 3.02-3.159 4.557-4.416 1.387-1.134 2.969-2.031 4.556-3.094-1.489-3.625-3.723-3.666-6.359-1.827-.943.659-1.55 1.901-2.549 2.35-1.243.56-3.455 1.232-3.954.682-.898-.99-1.416-3.008-1.07-4.328 1.803-6.88 11.984-9.93 17.116-4.922 6.087 5.94 8.361 13.863 9.524 22.032.174 1.223-1.259 3.664-2.247 3.837-1.595.28-3.438-.857-5.524-1.504-5.728 4.725-9.236 5.443-13.09 2.18-3.707-3.138-3.68-6.801-.96-10.99"/><path fill="#F06F12" d="M349.222 414.757c1.787 3.453.18 5.037-2.603 5.9-5.71 1.772-6.923 4.011-5.08 9.752.913 2.848 2.258 5.611 2.734 8.523.273 1.665-.808 3.552-1.28 5.339-1.641-.744-4.132-1.048-4.78-2.304a213 213 0 0 1-8.866-19.479c-.544-1.38.518-4.783 1.477-5.062 1.721-.5 3.925.662 6.12 1.175 2.914-5.975 6.368-7.34 12.278-3.844"/><path fill="#453D34" d="M294.09 290.326c.553.738 1.107 1.477 1.674 2.506-3.228 4.164-5.857 8.902-9.841 11.732-8.323 5.914-20.911 6.555-30.6-5.684-3.443 2.447-6.575 5.586-10.359 7.184-9.954 4.202-19.179 2.227-27.253-4.94-1.611-1.43-3.1-2.998-4.74-5.068-.042-.733.012-.9.041-1.069-.025 0-.024.051.341-.023 3.054 1.967 5.689 4.084 8.442 6.034 7.696 5.453 15.62 6.104 24.249 1.836 7.654-3.787 8.697-10.094 8.325-17.482.878-.067 1.464-.092 2.046.321.458 16.934 12.136 24.549 26.49 17.884 5.883-2.73 8.652-7.814 11.185-13.231"/><path fill="#E86E14" d="M94.575 248.348c-3.373 3.815-7.196 4.751-11.453 2.845-3.77-1.688-5.482-6.114-4.235-10.07 1.292-4.097 5.274-6.622 9.651-6.119s7.496 3.562 7.514 7.824c.007 1.731-.808 3.466-1.477 5.52"/><path fill="#E96F18" d="M413.552 243.953c3.686-5.127 7.756-6.457 12.005-4.156 4.127 2.234 5.145 5.913 4.148 10.145-.978 4.15-5.263 6.684-9.588 6.052-5.179-.758-7.72-5.16-6.565-12.041"/><path fill="#DD7429" d="M369.061 253.556c-8.368.73-16.812 1.076-25.633 1.075.99-1.418 2.358-2.488 4.134-3.581 5.383-1.393 10.356-2.764 15.33-4.134h9.789c-1.48 2.504-2.588 4.38-3.62 6.64"/><path fill="#E9741C" d="M176.982 195.824c.823-.6 1.646-1.201 2.824-1.78 3.739 2.89 7.122 5.76 10.866 9.057 1.576 1.901 2.792 3.376 4.034 5.23.122 1.127.218 1.876.247 2.977-.838.779-1.586 1.523-2.384 1.582-4.951.36-7.136-3.339-9.6-7.059-.638-1.127-1.242-1.88-1.731-2.7-1.443-2.422-2.84-4.87-4.256-7.307"/><path fill="#F8E0BD" d="M277.841 184.957s-.39-.086-.739-.338c-.913-1.018-1.477-1.785-2.338-2.529-.77-.727-1.245-1.476-1.719-2.225 3.897-3.51 7.781-7.033 11.694-10.524 7.075-6.314 7.082-6.306 14.017.709.026.74-.205 1.25-.904 1.902a4 4 0 0 1-.887.16c-1.407-.793-2.814-1.586-4.895-2.27-1.168.448-1.663.787-2.157 1.127-.916.75-1.832 1.5-3.108 2.653-.532.72-.704 1.034-.876 1.348 0 0 .066.022-.19.083-.417.354-.578.648-.74.942 0 0 .001.005-.213.092-.488.282-.614.548-.595.882-.364.434-.727.867-1.4 1.703-.465.712-.622 1.021-.778 1.33 0 0-.014-.003-.223.086-.48.282-.6.545-.569.877-.362.463-.725.926-1.401 1.777-.48.675-.648.964-.816 1.252 0 0-.005.005-.257.087-.47.347-.688.611-.906.876"/><path fill="#DA7C30" d="M317.989 197.027c-.01-.17-.018-.338-.02-1.077-.188-1.13-.384-1.69-.58-2.25l-1.417 2.283c-1.36.744-2.91 4.59-3.71-.776-.271-1.086-.76-1.637-1.247-2.188l-.057-2.475c4.4-2.706 6.367 1.118 9.655 3.417.485-1.366.984-2.775 1.425-4.564 4.537-3.613 9.06.767 14.105-.144-2.602.704-5.673 1.302-10.082 2.161-.026.343-.167 2.17-.203 4.357-.407.934-.919 1.507-1.993 2.71v-5.624l-.825-.183-3.159 8.02 5.063-1.792-4.637 7.87c-1.16-1.278-2.058-2.267-3.15-3.518-.016-1.812.16-3.362.756-5.176.304-.526.19-.788.076-1.05"/><path fill="#E87017" d="M167.006 253.014c-.002.746-.004 1.493-.345 2.461-2.582-.297-4.824-.816-7.338-1.313-.624-.062-.977-.145-1.559-.486-1.137-.373-2.045-.49-3.162-.601-.209.004-.606-.126-.841-.389-1.165-.37-2.096-.477-3.364-.557-1.389.201-2.442.376-3.89.333-1.814-.609-3.231-1-4.649-1.391 0 0 .079-.049-.038-.268-.65-.427-1.181-.634-1.713-.84-.353.005-.656-.116-1.17-.863-.64-.661-1.02-.822-1.399-.982 0 0-.318-.028-.406-.541 2.277-1.221 4.64-1.929 7.367-2.595 3.08 1.057 5.798 2.073 8.704 3.33.773.369 1.359.498 2.17.637.224.01.652.15.84.385.769.359 1.349.483 2.152.611.223.003.65.13.84.37.776.367 1.364.494 2.177.637.225.015.648.169.828.394.729.361 1.279.498 2.147.656 1.095.351 1.872.681 2.649 1.012"/><path fill="#DF711E" d="M194.68 207.952c-1.216-1.475-2.432-2.95-3.688-4.764-.039-1.849-.039-3.36-.039-5.08l2.967.226-.365-5.275 6.317 4.399c-.133-1.601-.424-3.744-.462-5.891-.055-3.072 1.178-3.163 3.212-.84-.463 3.47-1.537 6.627-1.49 9.768.09 6.137.104 6.317-6.612 3.339 1.03 1.888 1.535 2.812 1.802 3.982-.706.21-1.174.173-1.642.136"/><path fill="#F4C692" d="M252.885 192.35c-.008 2.903-.016 5.805-.299 9.311-.55 1.168-.824 1.732-1.224 2.246-.292-.074-.459-.099-.625-.126l-1.862-3.135c3.552-.088 2.252-2.878 1.927-4.297-1.195-5.23-2.736-10.39-4.375-15.502-.254-.791-1.698-1.2-2.954-1.75-.442-.314-.523-.665-.618-1.283 1.688-1.75 3.01-3.8 5.308-.423.868 1.276 3.927 1.06 6.75 1.527 1.22-.003 1.68-.01 2.158.325-.319 1.154-.657 1.968-1.435 2.79-1.573.904-3.606 1.743-3.666 2.704-.156 2.509.551 5.072.915 7.613"/><path fill="#DA7C30" d="M305.97 290.945c.876-.753 2.018-2.322 2.59-2.136a583 583 0 0 1 27.376 9.674c-3.668.328-7.425.306-11.783.103-5.117-1.655-9.634-3.128-14.153-4.595-.003.007.01.005-.011-.275-.344-.43-.666-.58-.988-.72 0 .008.017 0-.157-.289-1.053-.406-1.932-.524-2.826-.921a65 65 0 0 0-.049-.84"/><path fill="#5F503F" d="M355.902 279.92c2.415.037 4.829.074 7.692.058 13.377.603 26.303 1.26 39.23 1.916q-.03.763-.063 1.526c-15.25-.487-30.5-.974-46.263-1.821-.541-.8-.568-1.24-.596-1.68"/><path fill="#E48332" d="M305.755 290.854c.226.278.238.465.455 1.204 1.074.681 1.94.81 2.808.938 0 0-.016.008 0 .284.34.423.666.57.992.716 0 0-.013.002.096.318 2.74 2.797 5.372 5.28 8.003 7.762-1.892 3.797-4.532 5.788-9.064 3.387 3.241-1.2 1.79-3.44.627-4.81-1.42-1.674-3.454-2.845-5.288-4.14-2.424-1.71-3.643-3.51-.373-6.21.633-.29.812-.29.99-.288.096.31.275.56.754.84"/><path fill="#6C3210" d="M156.025 249.1s-.428-.142-.854-.377c-1.003-.374-1.58-.513-2.156-.652-2.718-1.016-5.436-2.032-8.778-3.333-2.44-.743-4.259-1.2-6.077-1.658 0 0-.161-.443-.12-.978.101-.734.162-.934.598-1.173 3.044.63 5.712 1.301 8.38 1.972 10.477 3.951 20.954 7.902 31.778 11.976-.074.69-.495 1.26-1.354 1.722-.763-.218-1.087-.33-1.412-.442l-6.537-2.442c-.782-.417-1.09-.516-1.438-.49a4.7 4.7 0 0 0-.78-.19c-1.046-.352-1.823-.682-3.097-1.26a17 17 0 0 0-2.148-.654s-.423-.154-.849-.4c-1.006-.378-1.586-.512-2.166-.646 0 0-.427-.127-.848-.357-.995-.36-1.568-.489-2.142-.619"/><path fill="#DE8033" d="M176.009 219c-5.131.395-8.567-2.034-10.927-6.8-2.07-3.075-4.008-5.829-6.007-8.919-.063-.336-.068-.28.25-.204 3.661 2.545 6.987 5.038 10.378 7.438.237.167.955-.346 1.783-.468 1.73 3.034 3.126 5.993 4.523 8.952"/><path fill="#E87017" d="M164.996 267.16c.003.969.006 1.938-.358 3.282-5.432-.606-10.497-1.588-15.786-2.819-1.495-.596-2.768-.942-4.214-1.64-1.463-.471-2.751-.592-4.04-.712-.35-.068-.7-.136-1.3-.63-.278-.842-.308-1.256-.338-1.671 0 0 .037.027.453.037 2.447.007 4.478.003 6.874.017.849.052 1.332.087 2.009.346.96.354 1.73.484 2.906.667 4.87 1.076 9.332 2.1 13.794 3.123"/><path fill="#E08A3F" d="M155.538 222.424c1.804 1.784 3.162 3.527 4.331 5.027l-6.34 5.731c-1.293-2.056-2.388-3.799-3.512-5.901-.028-2.802-.028-5.245-.028-7.888 1.44.843 3.272 1.917 5.549 3.031"/><path fill="#DD7429" d="M209.822 297.873c-2.618 2.417-5.118 4.987-7.932 7.148-.765.587-2.48-.064-3.759-.147.268-1.211.535-2.423 1.108-3.798.306-.164.323-.183.66-.395 3.387-2.202 6.437-4.192 9.923-6.466z"/><path fill="#EBB177" d="M185.038 297.85c1.16-.472 2.32-.944 4.102-1.654 4.341-1.525 8.06-2.81 11.616-3.823-1.692 1.075-3.22 1.875-4.991 2.73-.565.209-.763.461-.857.798-.022-.014-.07-.034-.413.035-4.856 1.188-7.492 4.479-9.753 8.203-1.76-.891-3.519-1.782-5.312-3.22 1.847-1.388 3.727-2.229 5.608-3.07"/><path fill="#D3661C" d="M165.011 284.128c-1.96 1.587-3.08 4.787-6.759 3.103-.504-.231-2.063 1.84-3.181 3.196-.818-.58-1.588-1.51-3.1-3.334a13.3 13.3 0 0 1-3.814-1.03c2.181-1.118 4.517-1.583 7.235-2.057 3.462.035 6.54.079 9.62.122"/><path fill="#E09852" d="M157.998 292.243c3.483-.571 6.827-.83 10.171-1.09l.884 1.496c-2.295 1.539-4.589 3.078-6.959 4.972-2.075-.982-5.654-1.107-4.096-5.378"/><path fill="#DD7429" d="M138.638 240.929c-.64-.233-.906-.505-1.257-.879a345 345 0 0 1-2.543-5.301l1.134-.864c1.46.543 2.918 1.086 4.72 1.367.344-.261.301-.254.062.023.267.773.774 1.268 1.28 1.764 0 0-.065-.02-.083.231.27.71.558 1.169.845 1.627 1.302 1.12 2.605 2.24 4.065 3.682-2.51-.349-5.18-1.02-8.223-1.65m204.574-23.856c-1.624-1.011-5.024-1.56-.446-4.052 1.142-.17 1.681-.317 2.433-.705.06-.735-.092-1.229-.148-1.805.219-.2.318-.335.778-.338.996-.294 1.608-.737 2.198-1.188-.02-.007-.024.036-.024.036 1.457-.774 2.915-1.547 4.68-2.005-1.684 3.213-3.677 6.11-5.67 9.006 0 0-.015-.02-.277.025-.421.356-.58.667-.74.979 0 0 0-.032-.337-.074-1.04.012-1.744.066-2.447.12"/><path fill="#E08A3F" d="M145.922 263.007c-2.03.003-4.062.007-6.529-.016-2.33-1.717-5.11-3.348-.256-5.673 1.657.09 2.764.392 4.233.729 2.436.682 4.51 1.328 6.598 2.222.015.246.035.74-.391.68-2.528-.06-4.63-.06-7.728-.06z"/><path fill="#E87017" d="M160.875 278.081c-5.294.283-11.086.529-17.327.711-2.063-.783-3.678-1.502-5.5-2.729-.09-.944.027-1.382.145-1.82.403-.05.806-.102 1.758.042 3.05.366 5.55.536 8.05.707 1.128 1 2.155 2.678 3.407 2.866 2.933.441 5.973.17 9.467.223"/><path fill="#E08A3F" d="M360.01 238.007c1.474-1.33 2.948-2.66 4.768-4.016 2.19-.659 4.032-1.291 5.841-1.913l3.094 4.554c-1.25 1.04-2.61 2.173-4.289 3.416-1.392-5.663-1.727-5.805-6.389-2.759-.644.421-1.526.48-2.667.708-.369.002-.357.01-.357.01"/><path fill="#DA7C30" d="M185.157 304.152c1.846-3.737 4.482-7.028 9.388-7.85.797 1.14 1.2 1.979 1.565 3.035-.04.217-.125.649-.125.649-3.47 1.393-6.941 2.786-10.828 4.166"/><path fill="#F1BA87" d="M196.456 300c-.471-.014-.386-.446.005-.732 4.357-2.459 8.268-4.745 12.324-6.735 1.198-.588 2.804-.341 4.255-.105a59 59 0 0 1-.052 2.61s-.001-.05-.278-.042c-.72.341-1.163.675-1.606 1.009-.246.537-.492 1.073-1.01 1.74-.272-.827-.272-1.782-.272-3.53-3.486 2.274-6.536 4.264-9.945 6.342-.433-.2-.358-.38-.133-.45z"/><path fill="#E0A16A" d="M369.851 261.911c.196.023.393.045.876.136.847.905 1.406 1.74 1.874 3.072-.927.618-1.764.74-2.6.864-1.067.003-2.134.007-4.037.004-2.874-.015-4.911-.022-6.949-.029-.262-.078-.482-.22-.421-.808 3.91-1.332 7.584-2.286 11.257-3.239"/><path fill="#EBB177" d="M148.213 274.955c-2.713-.134-5.213-.304-7.977-.78-.308-.965-.353-1.625-.234-2.904 1.14-.973 2.117-1.326 3.053-1.664l-1.495-1.012.444-.789c1.332.348 2.663.695 4.014 1.301.043.43.066.6-.11.916-.013.521.173.897.353 1.593.86 1.323 1.728 2.323 2.595 3.324 0 0-.43-.02-.643.015"/><path fill="#F1BA87" d="M318.452 302.002c-2.974-2.408-5.606-4.89-8.343-7.695 4.41 1.15 8.927 2.624 13.68 4.372-1.506 1.266-3.25 2.258-5.337 3.323M162.66 216.02c3.133 3.898 5.906 7.818 8.68 11.738l-1.655 1.206c-2.895-4.055-5.79-8.111-8.755-12.503.41-.363.89-.391 1.73-.44"/><path fill="#DD7429" d="M185.021 297.52c-1.864 1.17-3.744 2.011-5.818 3.126-1.588.273-2.984.273-4.495.273.485-.847.85-1.486 1.228-2.448 2.632-1.443 5.244-2.585 7.913-3.573.09-.034.757 1.493 1.172 2.622"/><path fill="#F4C692" d="m145.998 268.848-3.994-1.042-.444.79 1.495 1.011c-.936.338-1.913.691-3.081 1.334-1.805-.28-3.417-.849-6.247-1.847 3.577-1.128 5.664-1.786 8.34-2.742 1.307-.204 2.026-.111 2.745-.018 1.272.347 2.545.693 4.015 1.558.18.696.161.874-.23 1.06a99 99 0 0 1-2.6-.104"/><path fill="#EEAB6C" d="M347.366 216.034c1.64-2.909 3.633-5.805 5.672-9.084 1.866-.271 3.686-.16 5.908-.024-.851.79-1.312 1.216-1.894 1.89-3.192 2.574-6.263 4.903-9.686 7.218"/><path fill="#DE8033" d="M344.986 212.558c-.539.146-1.078.293-1.903.39-.102-2.89.082-5.728.55-8.75.282.463.282 1.108.282 2.32l4.522-2.604c-.35 1.894-.59 3.19-.632 4.796.198.311.201.268-.14.144-.967.306-1.594.737-2.221 1.169-.075.153-.174.288-.445.98-.103.902-.058 1.228-.013 1.555"/><path fill="#6A3413" d="M369.745 261.685c-3.567 1.18-7.24 2.133-11.23 3.283-.81.142-1.305.087-2.34-.27a26 26 0 0 1-2.224-1.775c4.003-.673 8.006-1.347 12.404-2.06.853-.018 1.31.003 2.109.042.618.197.897.376 1.28.78"/><path fill="#E0A16A" d="M155.009 284.014c-2.335.466-4.67.931-7.11 1.764-.725-.987-1.344-2.34-1.967-4.019.779-.397 1.562-.469 2.829-.372.483.169.895.213.895.213l.311-.302c.739-.044 1.477-.088 2.648.204a49 49 0 0 1 2.394 2.512"/><path fill="#DA7C30" d="M395.2 102.485c-4.405-.021-9.084-.32-14.263-.719 4.439-2.833 9.208-1.038 14.263.72m-45.655 81.757c4.912-3.226 10.4-2.985 16.164-.354-5.119.344-10.427.348-16.164.354"/><path fill="#E09852" d="M363.826 220.67c-.83 2.66-1.844 5.022-2.857 7.383l-1.345-.498c.32-2.17.64-4.341.657-6.538.919-.234 2.141-.44 3.545-.348"/><path fill="#DA7C30" d="M388.088 215.493c3.58-.333 7.413-.38 11.661-.366-3.385 3.052-7.382 2.15-11.66.366"/><path fill="#DF711E" d="M141.713 251.354c1.563.108 2.98.5 4.686 1.195.226.517.296.667.072.913-2.79-.355-5.154-.868-7.494-1.419l.071-.116c.84-.096 1.68-.193 2.665-.573"/><path fill="#DA7C30" d="M409.479 162.65c-.348-1.85-.532-4.123-.423-6.56.39 1.936.489 4.036.423 6.56m.211-9.13c-.076-2.808-.007-6.023.37-9.414.13 2.886-.048 5.948-.37 9.415"/><path fill="#DD7429" d="M370.007 266.351c.83-.491 1.667-.614 2.727-.96.681.104 1.139.432 1.596.76-1.187.675-2.374 1.35-3.905 2.035-.366-.483-.388-.975-.418-1.835"/><path fill="#DA7C30" d="M405 109.631c-1.266-.776-2.604-1.874-3.968-3.32 1.282.767 2.588 1.882 3.967 3.32"/><path fill="#DF711E" d="M143.008 258.012a143 143 0 0 0-3.663-.96c-.652-.477-.962-.898-1.362-1.625-.09-.306.06-.49.423-.466 1.776 1.033 3.19 2.042 4.602 3.05m-7.314-3.686-1.517-2.067c1.441-.264 2.882-.528 4.597-.561.274.23.226.308-.143.33-1.101.653-1.834 1.284-2.66 2.01-.093.095-.277.288-.277.288"/><path fill="#DA7C30" d="M375.725 197.402c.737 1.73 1.464 3.86 2.11 6.388-.76-1.73-1.44-3.858-2.11-6.388m-67.038-7.291c.203 1.968.05 3.98-2.677 1.255.772-.615 1.568-.876 2.677-1.255"/><path fill="#F4D4AD" d="M346.142 231.376c-.707 1.05-1.515 1.524-2.323 2l-.74-.81c.685-.907 1.37-1.813 2.387-2.813.413.287.494.668.676 1.623"/><path fill="#DA7C30" d="M410.49 202.22c-.077-1.138.084-2.543.546-4.117.098 1.17-.106 2.51-.546 4.117m-2.327-87.654c-.67-.538-1.356-1.418-1.991-2.666.692.53 1.334 1.427 1.99 2.666"/><path fill="#EBB177" d="M137.9 274.18c.175.501.057.939-.143 1.708-.105-.37-.128-1.072.142-1.709"/><path fill="#E08A3F" d="M144.638 265.983c-.545.258-1.264.165-2.345.104-.687-.117-1.012-.266-1.515-.616 1.109-.08 2.397.04 3.86.512"/><path fill="#F4D4AD" d="M154.205 204.912c.108-.697.578-1.387 1.359-2.138-.126.673-.562 1.41-1.36 2.138"/><path fill="#DA7C30" d="M303.047 188.642c-.36-.547-.67-1.454-.908-2.708.367.55.662 1.45.908 2.708m43.503-3.292c.411-.426 1.152-.855 2.253-1.212-.4.45-1.162.83-2.253 1.212"/><path fill="#E09852" d="M162.076 298.288c.573.133 1.198.569 1.905 1.305-.564-.134-1.209-.568-1.905-1.305"/><path fill="#DA7C30" d="M302.195 184.645c-.393-.53-.75-1.434-1.034-2.733.405.523.738 1.442 1.034 2.733m63.815-.201c.431-.101 1.04.047 1.777.5-.447.12-1.023-.066-1.777-.5"/><path fill="#E08A3F" d="M138.672 263.063c.318.322.348.736.384 1.462-.22-.249-.446-.809-.384-1.462"/><path fill="#F4E6CE" d="M211.379 296.004c.168-.333.61-.667 1.356-1.008.248.16.194.327.08.752-.427.257-.794.256-1.436.256"/><path fill="#DD7429" d="M362.34 270.06c.194-.26.72-.493 1.426-.548-.245.31-.668.443-1.425.548"/><path fill="#DA7C30" d="M374.77 194.355c.35.245.71.837.996 1.802-.379-.237-.683-.846-.996-1.802m-30.413-8.029c.181-.377.68-.77 1.52-1.082-.174.41-.689.738-1.52 1.082m-38.3 4.412c-.351.066-.633-.14-1.02-.59.293-.057.691.13 1.02.59m31.303-1.448c.236-.372.825-.753 1.793-1.068-.227.398-.834.729-1.793 1.068m72.098 15.882c-.128-.446-.002-1.123.424-1.993.144.459-.014 1.11-.424 1.993m-31.745-.682c.378.211.754.76 1.063 1.675-.4-.202-.732-.77-1.063-1.675"/><path fill="#E86E14" d="M299.131 175.729c-.348-.182-.704-.684-1.053-1.512.353.18.7.686 1.053 1.512"/><path fill="#DA7C30" d="M411.237 121.654c-.37-.242-.732-.835-1.025-1.803.39.233.712.842 1.025 1.803"/><path fill="#DF711E" d="M140.256 250.214c.383-.045.915.162 1.578.632-.389.05-.91-.165-1.578-.632"/><path fill="#E86E14" d="M297 172.406c-.035-.293.384-.312.593-.325.314.402.42.816.533 1.552-.359-.098-.725-.516-1.126-1.227"/><path fill="#DA7C30" d="M410.196 118.693c-.37-.178-.742-.677-1.078-1.508.383.174.729.68 1.078 1.508m-9.769 96.514c.143-.368.59-.756 1.358-1.127-.136.38-.595.744-1.358 1.127m-14.613-.755c.45-.116 1.11.02 1.915.479-.472.139-1.087-.044-1.915-.48m23.368-97.851c-.361-.16-.735-.625-1.076-1.414.376.154.72.63 1.076 1.413"/><path fill="#E4721B" d="M199.71 300.318c-.19-.14-.266.038-.17.45.022.125.005.144.02.16.013.016.117-.399.15-.61"/><path fill="#DA7C30" d="M301.183 180.676c-.359-.238-.71-.822-1.004-1.77.375.23.693.827 1.004 1.77"/><path fill="#E48332" d="M307.108 304.284c.423-.066.989.134 1.67.626-.432.075-.98-.142-1.67-.626"/><path fill="#DA7C30" d="M404.231 212.793c-.007-.434.259-.94.83-1.456.019.455-.269.919-.83 1.456"/><path fill="#DF711E" d="M137.819 255.214c-.63-.084-1.187-.26-1.934-.663-.191-.226-.007-.419.373-.474.848.25 1.316.555 1.784.86z"/><path fill="#DA7C30" d="M373.95 192.308c.247.002.517.311.771.942-.26.003-.504-.317-.77-.942m31.961-81.546c-.218.056-.478-.147-.806-.593.209-.05.486.141.806.593m-6.708-6.161c-.202.118-.562-.006-1.069-.385.206-.122.56.01 1.07.385m-1.875-1.084c-.208.14-.605.033-1.173-.34.214-.146.6-.026 1.173.34m-24.37 86.78c.239-.013.522.27.814.868-.25.019-.51-.277-.813-.868m-63.014-.499c-.08.212-.255.224-.691.22.024-.151.31-.286.69-.22"/><path fill="#DF711E" d="M204.085 192.66c-.223.043-.537-.193-.914-.73.232-.05.527.2.914.73"/><path fill="#E86E14" d="M299.98 177.688c-.242.004-.511-.314-.818-.953.238-.004.514.313.818.953"/><path fill="#DA7C30" d="M371.82 188.474c.251-.045.575.194.909.756-.272.057-.554-.207-.909-.756"/><path fill="#F4C692" d="M238.175 175.98c-.1-.074.15-.306.15-.306s.32.121.379.284-.429.096-.529.022m-3.05-1.086c.09-.353.309-.37.615.028-.137.212-.327.176-.615-.028"/><path fill="#DA7C30" d="M342.336 187.193c-.01-.261.294-.569.938-.856.02.283-.302.546-.938.856m27.34-.728c.228-.107.598.037 1.056.481-.247.123-.58-.053-1.056-.48m-29.364 1.651c-.002-.25.307-.54.947-.812.01.269-.314.521-.947.812m30.526-.659c.235-.09.551.072.91.511-.248.098-.538-.082-.91-.511m10.029 22.89c.229-.081.547.1.936.559-.235.086-.54-.105-.936-.56m24.727.883c-.115-.243.01-.573.418-.935.13.26-.024.553-.418.934m-23.706.165q.353-.137.92.522-.352.136-.92-.522m1.03.992q.332-.14.946.494-.332.142-.946-.494m19.432 1.68c-.035-.24.218-.538.776-.86.04.251-.225.528-.777.86"/><path fill="#DF711E" d="M137.705 248.377c.212-.099.592.062 1.113.504-.221.106-.584-.07-1.113-.504"/><path fill="#DD7429" d="M367.26 269.028c-.003-.18.252-.333.614-.342-.048.219-.203.293-.615.342"/><path fill="#F4D4AD" d="M149.103 206.231c.047-.242.201-.322.614-.383.003.194-.253.37-.614.383"/><path fill="#DA7C30" d="M408.43 207.256c-.131-.193-.034-.563.308-1.097.136.196.028.558-.308 1.097m-29.497.042c.242-.013.531.275.833.882-.253.02-.519-.28-.833-.882m28.449 1.769c-.116-.204.01-.517.366-.952.112.199-.007.52-.366.952m-.862 1.103c-.119-.23.007-.56.403-.968.127.236-.015.55-.403.967"/><path fill="#F6E7CE" d="M166.882 138.226c1.105 5.04 2.46 9.686 2.897 14.416.227 2.461-.748 5.288-1.919 7.571-2.514 4.902-6.954 7.925-12.3 8.276-4.9.32-6.958-4.109-8.656-7.87-3.548-7.861-7.006-15.782-10.018-23.858-2.362-6.33-.187-10.032 6.272-12.252 7.764-2.668 14.506-.66 19.369 6.029 1.648 2.267 2.83 4.875 4.355 7.688"/><path fill="#DC6E1C" d="M176.15 219.007c-1.538-2.967-2.934-5.926-4.754-9.302-2.188-3.46-3.954-6.501-5.72-9.543.488-.05.977-.1 2.15-.162.894-.033 1.103-.055 1.53-.04.219.036.607.25.637.525.364.686.696 1.097 1.276 1.749a482 482 0 0 1 5.35 7.284l1.38-.934c-.737-1.364-1.548-2.698-2.142-4.122-.105-.253.694-.882 1.306-1.075 2.12 1.104 4.007 1.946 5.895 2.788 2.375 3.376 4.56 7.075 9.511 6.715.798-.059 1.546-.803 2.659-1.389 1.442 1.432 2.543 3.022 3.904 4.988l-13.723 4.23v2.138l-8.838-3.848s-.281.006-.422-.002m2.84-8.57-.679.042c.205.195.41.39.808 1.068.302.14.603.282.991.727l.278.148c-.14-.131-.28-.263-.45-.927-.268-.212-.536-.424-.947-1.058"/><path fill="#F8E0BD" d="M169.963 200.21s-.388-.214-.75-.462a8 8 0 0 0-1.298-.58c-.041-.241-.082-.483.3-1.08 1.631-.824 2.839-1.293 4.047-1.762 0 0-.242-.1.178-.092a8 8 0 0 0 1.565-.38c.746.03 1.493.058 2.608.029 1.784 2.379 3.182 4.826 4.625 7.247.489.821 1.093 1.574 1.732 2.701-1.8-.498-3.688-1.34-5.979-2.744-2.32-1.347-4.239-2.132-6.376-2.943-.22-.026-.652.066-.652.066"/><path fill="#F4D4AD" d="M165.318 200.165c2.124 3.039 3.89 6.08 5.745 9.464-.405.54-1.123 1.053-1.36.886-3.39-2.4-6.717-4.893-10.404-7.448 1.657-1.023 3.66-1.961 6.02-2.902"/><path fill="#E48332" d="M171.884 196.234c-.83.561-2.038 1.03-3.62 1.49.832-.532 2.037-1.057 3.62-1.49m1.946-.584c-.207.333-.589.462-1.27.625.166-.253.63-.54 1.27-.624m-5.924 3.722c.32-.094.633.016 1.089.339-.066.233-.275.255-.8.277-.316 0-.297-.41-.289-.616"/><path fill="#F1BA87" d="M273.02 179.902c.5.712.974 1.461 1.647 2.558-.406 3.078-1.01 5.81-1.615 8.541-.01.462-.018.924.002 2.144a434 434 0 0 1 .019 5.828 17 17 0 0 1-.372 1.602c-.372.715-.459 1.014-.417 1.35-.436 1.008-.872 2.018-1.695 3.469-.888.015-1.866-.495-1.809-.825.326-1.881.9-3.72 1.44-6.026-.085-3.5-.22-6.547-.313-10.002-.095-5.636-.095-5.636-3.1-4.302-.546.813-.943 1.389-1.436 2.105-.529-.934-.922-1.63-1.048-2.495-.519-1.62-1.306-3.07-2.093-4.52 3.068-.404 6.136-.808 9.591-.685.673.802.958 1.078 1.244 1.353 0 0-.069-.057-.044-.095"/><path fill="#ED6D10" d="M262.064 178.998c.953 1.78 1.74 3.23 1.915 4.845-1.07.162-1.527.16-2.123-.119-.704-.857-1.27-1.437-1.71-2.251-.949-1.013-2.022-1.791-3.094-2.57-.46.006-.918.012-1.716-.044.265-1.607.869-3.154 1.884-5.753 2.072 2.463 3.375 4.012 4.844 5.892"/><path fill="#F8E0BD" d="M273 179.695c-.22.027-.506-.249-.888-.818.21-.024.518.246.889.818"/><path fill="#F7E5C5" d="M380.486 148.996c1.479 8.08-1.548 12.147-7.364 9.916-2.365-.907-5.329-3.79-5.477-5.95-.151-2.19 2.383-5.256 4.558-6.748 3.027-2.078 5.976-.384 8.283 2.782"/><path fill="#F4E6CE" d="M213.353 294.964c-.338-.672-.31-1.418-.208-2.867 2.408-3.127 4.768-5.526 7.067-7.983 2.433-2.6 3.994-5.437 1.998-9.037.317-.027.561-.175 1.086-.77.656-.612.956-.897 1.257-1.182 0 0 .25.096.658-.046a7.7 7.7 0 0 0 1.36-.944 577 577 0 0 1 4.457-1.164c.98-.43 1.398-.726 1.816-1.022.313-.106.625-.212 1.36-.592.63-.574.838-.873 1.045-1.173 0 0-.108-.044.21-.053.575-.337.833-.665 1.09-.994.339-.026.677-.053 1.512-.269.752-.68 1.008-1.171 1.264-1.662 0 0-.133.03.236.038 1.174-.698 1.98-1.403 2.785-2.11.296-.056.511-.22.933-.824.456-.651.625-.97.793-1.288.257-.216.514-.432 1.084-1.03.55-.894.788-1.405 1.025-1.916 0 0-.092.005.197-.035.435-.114.575-.22.73-.251.151-.03.457.017.457.033.021 1.565.02 3.13.02 4.696l1.147.192a319 319 0 0 1 2.102-5.894c.198-.389.201-.626.133-.847.026.018-.029-.025.222-.002.58.085.909.147 1.237.209 0 0 .217.429.256.995.16 1.506.282 2.445.551 4.511l3.282-3.857 10.425 7.069 2.943-1.647s.014-.116.026.242c1.915 2.639 3.05 7.1 7.235 2.903 1.559 1.32 3.118 2.639 5.216 4.127.907.276 1.275.382 1.643.49.277.446.554.892.536 1.639-.92.425-1.544.55-1.965.635l8.694 7.448-8.223-2.559c4.206 4.465 7.505 7.967 10.924 11.811-2.412 5.759-5.181 10.842-11.063 13.573-14.355 6.665-26.033-.95-26.118-18.021 6.085-3.158 11.158-6.373 12.983-12.898-6.093-3.844-17.48-4.45-26.758-1.993-3.787 1.002-3.543 2.778-1.98 5.355 3.016 4.97 7.67 7.686 13.044 9.394.664 7.346-.38 13.653-8.033 17.44-8.628 4.268-16.553 3.617-24.25-1.836-2.752-1.95-5.387-4.067-8.44-6.034m67.041-22.422-.67-.144c.138.107.276.214.67.144m-12.136-6.138.484.027c-.075-.1-.15-.2-.484-.027"/><path fill="#F1F0E2" d="M275.125 228.976c.174-.528.35-1.057.96-1.81.884-.175 1.33-.126 1.779.341.068 1.529.134 2.64.123 4.083.012 1.21.102 2.089.305 4.075 2.317-3.459 4.042-6.033 5.742-8.638-.024-.03.01.039.295.018.436-.35.585-.678.703-1.023-.033-.017.017.037.325-.002.773-.682 1.239-1.325 1.676-1.994-.029-.026.01.041.304.031.44-.342.586-.674.705-.98-.029.025.027.077.38.023 8.489-6.22 17.274-7.219 26.751-3.566 1.426.55 3.14.354 4.72.503.045.197.089.394.358 1.16 3.012 3.546 5.8 6.525 8.587 9.504 3.977 10.081 4.964 20.02-1.615 29.502-10.672 15.383-35.279 16.13-47.329.81-1.59-5.098-2.96-9.544-4.332-13.99-.008-.776-.016-1.552-.029-3.08-.085-2.446-.167-4.14-.079-6.23.035-2.85-.1-5.303-.2-8.007-.02-.41-.075-.57-.13-.73m46.549 29.1c.927-1.762 2.007-3.461 2.756-5.296 3.997-9.792.36-20.804-8.36-25.896-8.416-4.914-22.563-4.598-29.093 4.71-7.255 10.34-6.09 23.44 3.523 31.25 8.811 7.159 22.243 5.34 31.174-4.768"/><path fill="#61432C" d="M320.132 219.865c-1.819.023-3.533.22-4.959-.33-9.477-3.654-18.262-2.655-26.891 3.204.62-2.766 1.733-5.225 3.075-7.847.704-.428 1.18-.694 1.665-.595.014 4.795 2.104 3.325 4.398 1.84.2-.007.58-.13.936-.12 1.206-.316 2.057-.642 3.185-.97.647-.01 1.017-.018 1.386-.027 0 0 .062-.015.132.382 2.305.587 4.54.778 6.774.97l6.795-2.583v4.433c.824 2.087 4.486-3.265 3.504 1.643"/><path fill="#5A3720" d="M328.996 230.42c-2.945-2.698-5.733-5.677-8.64-8.94.21-.267.57-.33.867-.22 5.677 2.069 5.676 2.073 12.068-1.607-1.6 4.055-2.868 7.27-4.295 10.766"/><path fill="#E48332" d="M291.396 280.988c-3.021-2.735-5.914-5.213-8.822-7.704a61 61 0 0 1 2.004-.372c.833.388 1.292.872 1.836 1.226 3.267 2.128 6.554 4.225 10.844 6.982l-4.4 4.405c-.663-2.127-.998-3.205-1.462-4.537"/><path fill="#833C15" d="M353.522 262.92c.99.495 1.552.986 2.29 1.7-6.468 1.162-13.113 2.1-19.758 3.04 5.047-3.92 11.17-3.862 17.468-4.74"/><path fill="#6C3210" d="M345.533 249.936c.618.276.858.575 1.36 1.005-1.107 1.202-2.474 2.272-3.905 3.674-2.812.597-5.562.864-8.311 1.13l-.447-1.622c3.642-1.387 7.284-2.775 11.303-4.187"/><path fill="#E08A3F" d="M275.356 247.37c1.577 4.1 2.948 8.545 4.372 13.342-1.296.65-2.645.95-4.343 1.235-.31-4.752-.273-9.49-.029-14.576"/><path fill="#ED6D10" d="M277.084 266.046c-4.126 4.545-5.26.083-7.23-2.538 1.38-.396 2.828-.452 4.708-.51 1.108.9 1.785 1.8 2.522 3.048"/><path fill="#833C15" d="M302.996 214.64c-.438.39-.808.398-1.567.136-.46-.452-.53-.634-.574-1.204.418-2.102.81-3.815 1.203-5.528 0 0-.048-.05.202-.199.395-.709.541-1.268.687-1.828.53-.358 1.06-.715 1.922-1.07-.38 3.107-1.091 6.21-1.873 9.693m6.647 1.381c-2.045.16-4.28-.032-6.586-.587 2.084-.164 4.24.036 6.586.587"/><path fill="#EEAB6C" d="M343.001 217.305c.914-.287 1.617-.34 2.673-.349-1.026 1.023-2.404 2-3.782 2.978l-.708-1.032c.536-.455 1.071-.91 1.817-1.597"/><path fill="#DD7429" d="M359.263 266.247c1.79-.282 3.827-.275 6.301-.243-1.727.194-3.89.362-6.301.243"/><path fill="#E48332" d="M295.647 284.733c-.015.257-.15.397-.286.537.055-.218.11-.437.286-.537"/><path fill="#DA7C30" d="M304.901 289.806c-.078.208-.257.207-.705.212-.356-.237-.444-.48-.531-.724.379.1.757.202 1.236.512"/><path fill="#61432C" d="M324.275 216.016c.1-.146.197-.166.295-.187-.099.104-.198.208-.295.187"/><path fill="#E08A3F" d="M359.994 237.993q-.176.637-.342 1.282c-.016-.342-.032-.684.156-1.147.203-.12.191-.129.185-.135"/><path fill="#6C3210" d="M347.294 249.662c-.077.184-.334.217-.98.264.008-.129.404-.272.98-.264"/><path fill="#61432C" d="M322.557 215.522c.02.043-.02-.044 0 0"/><path fill="#EEAB6C" d="M346.251 216.959c-.096-.245.064-.556.496-.908.102.253-.069.547-.496.908"/><path fill="#E08A3F" d="M341.992 272.006q-.205-.23-.398-.468c.1.048.202.096.36.296.057.152.046.166.038.172"/><path fill="#E48332" d="M283.832 270.76c-.197.142-.565.036-1.13-.29.188-.132.573-.046 1.13.29"/><path fill="#F8E0BD" d="M249.615 378.193c-3.153-1.812-3.178-4.398-1.417-6.424.992-1.14 3.77-1.9 5.033-1.31 1.315.614 2.843 4.07 2.418 4.517-1.456 1.532-3.727 2.29-6.034 3.217"/><path fill="#5A3720" d="M176.72 219.336c2.676.903 5.5 2.132 8.69 3.521v-2.137l13.722-4.23c-1.361-1.967-2.462-3.557-3.838-5.34-.37-.943-.466-1.692-.588-2.82.442-.34.91-.304 1.723-.202.346.065.424.032.455.285.396.696.759 1.138 1.122 1.581 0 0-.006.006.074.254.343.469.605.69.868.911a102 102 0 0 0 3.629 3.644c6.87 1.857 7.369 1.59 6.58-2.831l-.064-2.05c.009-1.762.04-2.809.072-3.855.359.003.717.006 1.377.407.668 2.126 1.036 3.853 1.403 5.58 0 0 .047-.057-.004.334.625 1.536 1.302 2.681 1.98 3.827.456.283.913.567 1.84 1.132 1.384.77 2.297 1.258 3.194 2.043-.022.494-.029.691-.428.818-12.769-5.023-22.687-2.86-32.101 6.78-.65.665-1.625 1.012-2.448 1.506-2.37-2.943-4.74-5.887-7.258-9.158"/><path fill="#E87017" d="M269.777 262.881c-.766.855-1.639 1.343-2.837 2.014l-10.425-7.069-3.282 3.857c-.269-2.066-.39-3.005-.417-4.31.79-1.61 1.958-2.806 2.082-4.103.296-3.088.098-6.224.103-9.804 1.278 2.524 3.545 5.488 3.618 8.506.149 6.122 3.028 8.578 8.624 9.102.847.08 1.621.941 2.534 1.807"/><path fill="#EEAB6C" d="M250.485 204.143c.418-.335.585-.31 1.03.2.659 4.269 1.038 8.048 1.417 11.828.012 1.036.025 2.072.113 3.789.336 1.208.599 1.734.86 2.26l.14 2.842c.313 1.852.591 2.993.87 4.135.025 1.339.05 2.678.075 4.83.02 2.197.038 3.58.057 4.964-.043.408-.086.815-.433 1.571-.715.317-1.125.285-1.535.253-1.08-9.854-2.226-19.702-3.189-29.568-.216-2.215.211-4.493.595-7.104"/><path fill="#F4E0C1" d="M237.203 234.969c.159 1.131.318 2.263.506 3.98-.07.755-.171.926-.568.99-1.947-2.42-3.597-4.732-5.216-7.427-.669-3.088-1.367-5.792-2.065-8.497-.614-2.073-1.227-4.146-1.754-6.838.597-1.145 1.109-1.671 1.803-1.99.505.347.825.486 1.146.626.093.203.186.405.293 1.254 1.857 5.836 3.701 11.025 5.545 16.215 0 0-.053.38.02.803.144.577.217.73.29.884"/><path fill="#F4C692" d="M229.726 214.979a26 26 0 0 0-1.655 1.828c-2.922-4.695-5.722-9.64-9.232-15.838 2.143.744 2.821.979 3.832 1.116.334-.097.293-.1.188.222.427 1.217.96 2.112 1.493 3.008.188-.398.375-.796.688-1.429.4-.45.676-.663.952-.877 1.525 3.446 3.05 6.892 4.702 10.899.128.56.21 1.049.21 1.049s.087.008-.246-.012a9 9 0 0 0-.932.034"/><path fill="#61432C" d="M229.502 224.002a37.5 37.5 0 0 1 2.174 8.306c-4.438-3.89-8.597-7.96-12.757-12.03.007-.197.014-.394.29-1.026 1.104-.363 1.937-.293 2.77-.222 2.389 1.653 4.777 3.306 7.523 4.972"/><path fill="#E87017" d="m250.737 256.969-2.005 5.742-1.147-.192c0-1.565.001-3.13-.02-4.696 0-.016-.306-.063-.456-.033-.156.03-.296.137-.711.292.33-1.734.93-3.55 1.568-5.722.818-.604 1.597-.85 2.696-.82.305 1.652.29 3.029.276 4.405 0 0 .055.043-.133.16-.385.403-.345.652-.068.864"/><path fill="#D3661C" d="M221.987 218.653c-.84.306-1.674.236-2.762.303-1.167-.35-2.08-.839-3.193-1.563.165-2.521.53-4.807.896-7.092l1.271-.182c1.265 2.719 2.53 5.438 3.788 8.534"/><path fill="#E87017" d="M236.93 232.855a205 205 0 0 1-5.413-15.499c1.92 4.786 3.684 9.929 5.412 15.499"/><path fill="#EBB177" d="M225.963 202.65c-.247.573-.523.787-1.15 1.045-.85-.54-1.35-1.125-1.85-1.71 0 0 .042.003.042.023a3375 3375 0 0 1-3.82-8.287l1.32-.866c1.81 3.146 3.62 6.291 5.458 9.795"/><path fill="#DF711E" d="M208.76 212.018c1.186 4.376.686 4.642-5.87 2.89 1.69-1.142 3.582-1.993 5.87-2.89"/><path fill="#F4C692" d="M251.19 255.968c-.238-1.4-.223-2.776-.247-4.565.68-.172 1.977-.003 2.017.321.153 1.235-.1 2.52-.367 4.119-.495.272-.824.21-1.404.125"/><path fill="#E87017" d="M237.438 240.046c.1-.17.2-.342.42-.785.46 2.437.8 5.147 1.138 8.295-.224.396-.446.353-1.02-.198-.413-2.776-.475-5.044-.538-7.312"/><path fill="#D3661C" d="M211.976 211.642c-.398-1.315-.766-3.042-1.165-5.163.377 1.32.786 3.035 1.165 5.163m1.86 4.235c-.593-.808-1.27-1.953-1.929-3.474.626.795 1.235 1.965 1.929 3.474"/><path fill="#E87017" d="M253.087 241.156c.402-.309.812-.277 1.528-.286.331.44.356.922.382 1.765-.633-.139-1.268-.638-1.91-1.479"/><path fill="#DF711E" d="M208.869 206.233c.264.88.233 1.927.153 3.363a10.2 10.2 0 0 1-.153-3.363m-10.885 3.456c-.341-.138-.704-.58-1.1-1.318q.51.208 1.1 1.318m.89 1.218q-.282.046-.79-.661.281-.046.79.66"/><path fill="#E87017" d="M231.092 214.884c-.189.073-.27-.416-.24-.662.162.033.296.312.24.662m-1.182.302c.015-.225.215-.243.715-.27.3-.01.376.443.403.67-.294.087-.614-.052-1.119-.4m7.429 19.672c-.208-.043-.28-.196-.336-.603.169-.005.32.244.336.603"/><path fill="#ED6D10" d="M270.168 198.996c-.489 1.853-1.062 3.692-1.388 5.573-.057.33.921.84 1.749 1.15-.855 6.196-.855 6.196-8.24 4.74-.354-5.134-.386-9.783-.105-14.413 2.87.997 5.427 1.974 7.984 2.95"/><path fill="#E86E14" d="M293.012 213.932c-.476.266-.951.532-2.04.943-2.402.13-4.19.114-5.94-.259a131 131 0 0 1 1.922-5.259c-1.295-1.045-2.15-1.735-2.947-2.764.666-1.77 1.276-3.2 2.275-4.618 1.165.017 1.94.022 2.717.026.481 1.054.814 2.216 1.484 3.133.78 1.067 1.854 1.918 3.155 3.251.027 2.108-.3 3.827-.626 5.547"/><path fill="#EEAB6C" d="M261.87 196.027c.033 4.649.065 9.298.007 14.393-.328.31-.527.13-.798-.664a641 641 0 0 1-1.034-6.76c-.32-3.395-.638-6.79-.991-11.047-.123-3.592-.213-6.32-.017-9.156.518-.433.751-.76.985-1.086.565.58 1.13 1.16 1.66 2.389.04 4.409.114 8.17.189 11.93"/><path fill="#F1BA87" d="M285.893 201.963c-.61 1.43-1.22 2.86-2.142 4.877-1.705 4.816-3.098 9.045-4.625 13.279-.135.003-.36-.147-.634-.1-.646.06-1.017.073-1.435-.263a27 27 0 0 1-.05-1.763s.076-.412.29-.827c.352-.992.49-1.568.629-2.145 0 0 .146-.38.339-.73.419-.6.518-.893.49-1.229.415-1.06.83-2.12 1.539-3.77 1.141-2.791 1.99-4.992 2.839-7.192 0 0-.03-.069.173-.134.45-.305.576-.597.582-.94.37-.718.74-1.436 1.37-2.614.417-.776.574-1.092.73-1.408 0 0 .014-.002.32.144.362 1.025.417 1.905.254 2.97-.37.738-.52 1.291-.67 1.845"/><path fill="#E86E14" d="M301.624 208.03c.042 1.727-.35 3.44-1.072 5.584a45 45 0 0 1-2.551 2.392s-.381.124-.967.027c-.738-2.74-.89-5.382-1.042-8.023 1.733.001 3.465.003 5.632.02"/><path fill="#ED6D10" d="M258.752 182.9c.09 2.729.179 5.457.246 8.639-.343-.271-.59-1.04-1.003-1.709-.798-1.295-1.69-2.532-2.543-3.794-.818 1.3-1.685 2.571-2.424 3.914-.213.386-.058.975-.108 1.935-.399-2.076-1.106-4.64-.95-7.148.06-.961 2.093-1.8 3.954-2.69 1.427.286 2.128.57 2.828.853"/><path fill="#E86E14" d="M286.78 199.932c-.055-.88-.11-1.759-.473-2.79 1.337-3.52 2.98-6.888 4.623-10.255q1.088.483 2.173.967c-1.675 3.808-3.35 7.617-5.37 11.774-.546.334-.75.319-.952.304"/><path fill="#ED6D10" d="M252.955 215.716c-.402-3.325-.781-7.104-1.314-11.322.12-1 .396-1.565.946-2.292.89 1.32 2.085 2.837 2 4.28-.175 2.98-1.032 5.922-1.632 9.334"/><path fill="#D3661C" d="M295.662 208.006c.482 2.645.634 5.287 1.172 8.033-1.708 1.583-3.798 3.053-3.812-1.742.317-2.085.643-3.804.978-5.905.45-.384.89-.387 1.662-.386"/><path fill="#ED6D10" d="M259.69 203.056c.662 2.003.97 4.065 1.275 6.53-1.959-1.553-4.563-3.356-1.275-6.53"/><path fill="#E08A3F" d="M275.219 229.956c.135 2.454.27 4.907.028 7.737-.645.302-.917.242-1.192.196.001-2.308.002-4.615.286-7.402.481-.496.68-.513.878-.53"/><path fill="#ED6D10" d="M273.405 190.93c.251-2.66.856-5.392 1.559-8.493.661.397 1.225 1.164 1.939 2.19a32.8 32.8 0 0 1-3.498 6.303m9.333 11.18c-.454 2.19-1.303 4.39-2.403 6.842.501-2.11 1.255-4.47 2.403-6.842m-8.702 36.173c.294-.348.566-.288 1.041-.194.289 1.714.37 3.408.295 5.5-.557-1.373-.956-3.142-1.336-5.306"/><path fill="#F1F2E4" d="M237.141 239.938c.36 2.376.422 4.644.508 7.331.023.42.061.51-.152.767-.364 1.175-.514 2.093-.663 3.011-.265.234-.384.527-.515 1.307-2.954 4.426-5.75 8.424-8.546 12.422 0 0 .099.052-.206.036-.74.376-1.175.768-1.61 1.16 0 0 .038.031-.25.063-.543.306-.798.58-1.053.855-.474.187-.948.374-1.858.847-.733.569-1.03.85-1.327 1.133 0 0-.286-.062-.647.07-.59.386-.822.639-1.052.892 0 0 .136.032-.212-.013-.912.313-1.477.67-2.041 1.027 0 0-.3-.071-.734.055-.764.39-1.094.655-1.425.92l-.448-.219s-.49.095-1.066.198c-1.499.423-2.423.743-3.347 1.062 0 0-.201-.179-.758-.179a1192 1192 0 0 1-11.792-.85s-.186-.122-.518-.325a28 28 0 0 0-2.332-.878c-.39-.255-.781-.51-1.586-1.004-.78-.354-1.147-.47-1.513-.587-.42-.343-.84-.685-1.653-1.304-.711-.423-1.028-.57-1.345-.717 0 0 .002-.022-.085-.254-.293-.522-.573-.674-.929-.686a107 107 0 0 0-1.748-2.23c-.609-.578-.89-.777-1.17-.975 0 0-.021.08-.04-.22-.313-.562-.607-.825-.9-1.088a23 23 0 0 0-.88-1.784 14 14 0 0 0-1.119-1.324s.1-.262-.034-.672a6.8 6.8 0 0 0-.961-1.341 4.5 4.5 0 0 0-.207-1.217c-3.162-9.315-1.408-17.857 2.976-26.415.898-.812 1.874-1.159 2.523-1.824 9.414-9.64 19.332-11.803 32.101-6.78 4.552 4.14 8.711 8.21 13.12 12.483 1.897 2.516 3.547 4.828 5.494 7.247m-44.55 22.024c4.894 4.433 10.748 5.699 17.139 5.195 8.834-.695 16.99-7.532 19.033-15.95 2.256-9.297-1.88-20.17-9.487-24.939-6.652-4.17-19.978-3.259-25.87 1.77-10.592 9.043-11.155 22.836-.816 33.924"/><path fill="#E4721B" d="M221.854 275.096c2.352 3.581.791 6.417-1.642 9.018-2.299 2.457-4.66 4.856-7.098 7.611-1.525.467-3.131.22-4.329.808-4.056 1.99-7.967 4.276-12.284 6.518-.755-.77-1.159-1.61-1.613-2.817-.05-.367-.002-.347.247-.41.533-.234.74-.471.871-.775 1.53-.8 3.058-1.601 4.97-2.976 2.186-2.477 7.064-1.22 6.16-6.212-.282-.393-.707-.63-1.132-.865 5.165-3.294 10.33-6.588 15.85-9.9"/><path fill="#6C3210" d="M146.287 263.024c-1.423-.567-2.482-1.118-4.438-2.135 3.097 0 5.2 0 7.962.36 3.841.822 7.023 1.285 10.204 1.748.364.063.727.125 1.605.375 1.126.3 1.74.413 2.352.527.389.08.777.159 1.733.447 1.48.36 2.391.509 3.303.659 0 0 .37.115.85.333 1.682.463 2.884.709 4.086.954l2.355 1.462-.133.989c-2.448-.262-4.895-.523-7.843-.986-.675-.51-.939-.65-1.292-.622-.454-.044-.91-.089-1.7-.054a229 229 0 0 1-14.297-3.29 17.5 17.5 0 0 0-2.93-.644c-.485-.036-.968-.071-1.817-.123"/><path fill="#EBB177" d="M148.97 268.945c.018-.179.037-.357.08-.804 5.09.713 10.156 1.695 15.593 2.664 1.904.534 3.435 1.08 4.858 1.944-.635.601-1.161.884-1.688 1.167-2.915-.017-5.831-.034-9.506-.256-3.968-.877-7.176-1.55-10.361-2.571.026-.582.028-.815.412-1.055 1.95.197 3.518.404 5.086.61l.105-1.222z"/><path fill="#E87017" d="M138.406 254.961c-.832-.329-1.3-.634-2.055-.98.446-.67 1.179-1.3 2.257-1.915 2.709.528 5.073 1.04 8.151 1.48 1.901.476 3.088 1.027 4.51 1.825 1.145.344 2.053.441 3.162.525.2-.015.575.128.575.128-.001 1.38-.003 2.76-.37 4.516-1.805.08-3.244-.22-4.683-.518-2.074-.647-4.147-1.293-6.583-1.975-1.775-1.044-3.188-2.053-4.964-3.086"/><path fill="#DD7429" d="M206.992 286.019c1.048 4.834-3.83 3.577-5.854 5.78-3.938 1.586-7.657 2.872-11.73 4.221-.626-.437-.898-.938-.927-1.773 6.011-2.982 11.779-5.63 17.546-8.277 0 0-.012.049.22.044.403-.002.574.001.745.005"/><path fill="#E87017" d="M228.16 264.85c2.41-4.072 5.205-8.07 8.295-12.292-.709 4.196-1.71 8.617-2.764 13.271-2.302-.404-3.723-.654-5.531-.978"/><path fill="#E08A3F" d="M155.392 284.006c-1.037-.717-1.691-1.442-2.409-2.46 2.65-.398 5.363-.504 8.523-.581 1.63.391 2.865.648 3.96 1.188.283.14.125 1.172-.142 1.885-3.391.047-6.47.003-9.932-.032"/><path fill="#F4E0C1" d="M169.423 415.492c.854 5.124-2.725 5.136-6.6 6.107 1.467-3.517 1.216-7.53 6.6-6.107"/><path fill="#F8E0BD" d="M158.933 430.731c1.6-.689 3.044-1.022 4.487-1.356.133.884.637 2.362.335 2.55-1.337.836-2.906 1.302-4.392 1.902-.195-.913-.39-1.827-.43-3.096"/><path fill="#DF6D3E" d="M254.37 285.352c-5.666-1.666-10.321-4.382-13.336-9.352-1.564-2.577-1.808-4.353 1.98-5.355 9.276-2.456 20.664-1.85 26.757 1.993-1.825 6.525-6.898 9.74-12.98 12.46-.958.162-1.544.187-2.422.254"/><path fill="#F1BA87" d="M170.834 200.17c1.918.785 3.836 1.57 5.926 2.655-.209.755-1.008 1.384-.903 1.637.594 1.424 1.405 2.758 2.142 4.122l-1.38.934c-1.701-2.348-3.402-4.696-5.36-7.59-.313-.95-.369-1.354-.425-1.758"/><path fill="#EE6D0E" d="M262.184 196.046c-.388-3.78-.462-7.541-.363-11.674.631-.369 1.089-.367 1.89-.359.738.702 1.131 1.397 1.66 2.33.493-.715.89-1.29 1.791-2.045 1.238 1.432 1.971 3.041 2.704 4.65.135 3.048.27 6.095.353 9.595-2.608-.523-5.165-1.5-8.035-2.497"/><path fill="#56AA4B" d="M321.466 258.378c-8.724 9.806-22.156 11.625-30.967 4.466-9.614-7.81-10.778-20.91-3.523-31.25 6.53-9.308 20.677-9.624 29.092-4.71 8.722 5.092 12.358 16.104 8.36 25.896-.748 1.835-1.828 3.534-2.962 5.598m-5.274-20.253c1.693-3.362-.025-5.807-2.545-7.521-3.737-2.542-7.671-2.37-11.844-.086-7.028 1.17-11.618 6.386-11.956 13.586-.355 7.575 3.897 13.882 10.523 15.61 6.208 1.62 12.455-1.107 16.187-7.065 2.524-4.029 2.308-10.343-.365-14.524"/><path fill="#DD6717" d="M277.864 227.507c.1-.875.204-1.333.238-2.138.157-1.789.385-3.23.639-5.034.026-.363.25-.213.727-.257 2.16-1.73 3.842-3.417 5.525-5.104 1.789.015 3.577.03 5.751.064-.729 2.476-1.843 4.935-2.816 7.755.141.36.085.31-.203.252-.42.302-.55.662-.682 1.022 0 0-.039-.067-.374-.135-.763.664-1.192 1.395-1.62 2.127 0 0-.05-.054-.332-.061-.412.35-.543.71-.673 1.068 0 0-.034-.07-.346-.167-2.086 1.387-3.86 2.873-5.635 4.358-.065-1.11-.131-2.221-.2-3.75"/><path fill="#55A949" d="M192.316 261.724c-10.065-10.85-9.502-24.643 1.09-33.685 5.892-5.03 19.218-5.942 25.87-1.77 7.606 4.767 11.743 15.64 9.487 24.937-2.042 8.42-10.199 15.256-19.033 15.951-6.39.504-12.245-.762-17.414-5.433m11.786-31.127c-6.253 1.064-9.302 5.38-10.787 11.009-1.84 6.975 1.79 14.612 8.095 17.568 6.077 2.85 13.173.946 17.797-4.776 3.96-4.9 3.953-12.494-.118-18.097-1.69-7.221-6.218-9.136-14.987-5.704"/><path fill="#1F211D" d="M316.084 238.81c2.781 3.496 2.997 9.81.473 13.84-3.732 5.957-9.98 8.684-16.187 7.065-6.626-1.729-10.878-8.036-10.523-15.611.338-7.2 4.928-12.415 12.067-12.973-1.45 4.916-.669 8.708 3.467 10.884 4.317 2.272 8.058.953 10.703-3.206"/><path fill="#F1F3EF" d="M316.138 238.467c-2.7 4.5-6.44 5.82-10.757 3.548-4.136-2.176-4.917-5.968-3.23-10.642 3.825-3.14 7.759-3.311 11.496-.769 2.52 1.714 4.238 4.159 2.491 7.863"/><path fill="#1F221E" d="M219.192 237.069c3.968 4.835 3.975 12.43.015 17.33-4.624 5.72-11.72 7.625-17.797 4.775-6.306-2.956-9.935-10.593-8.095-17.568 1.485-5.63 4.534-9.945 11.046-10.678-1.304 6.265.213 10.405 4.47 11.817 4.442 1.473 7.952-.45 10.36-5.676"/><path fill="#F3F6F2" d="M219.14 236.685c-2.357 5.61-5.867 7.533-10.31 6.06-4.256-1.412-5.773-5.552-4.054-11.957 8.095-3.623 12.624-1.708 14.365 5.897"/></svg><g data-testid="main-card-body" transform="translate(0, 55)"><g class="stagger" style="animation-delay: 450ms" transform="translate(25, 0)"><svg class="icon" xmlns="http://www.w3.org/2000/svg" viewBox="-30 1700 9000 512"><path d="M464 256A208 208 0 1 0 48 256a208 208 0 1 0 416 0zM0 256a256 256 0 1 1 512 0A256 256 0 1 1 0 256zm169.8-90.7c7.9-22.3 29.1-37.3 52.8-37.3l58.3 0c34.9 0 63.1 28.3 63.1 63.1c0 22.6-12.1 43.5-31.7 54.8L280 264.4c-.2 13-10.9 23.6-24 23.6c-13.3 0-24-10.7-24-24l0-13.5c0-8.6 4.6-16.5 12.1-20.8l44.3-25.4c4.7-2.7 7.6-7.7 7.6-13.1c0-8.4-6.8-15.1-15.1-15.1l-58.3 0c-3.4 0-6.4 2.1-7.5 5.3l-.4 1.2c-4.4 12.5-18.2 19-30.6 14.6s-19-18.2-14.6-30.6l.4-1.2zM224 352a32 32 0 1 1 64 0 32 32 0 1 1 -64 0z"/></svg><text class="stat bold" x="50" y="35">Total Questions Solved:</text><text class="stat bold" x="335" y="35" data-testid="questions">317</text></g>
<g class="stagger" style="animation-delay: 600ms" transform="translate(25, 25)"><svg class="icon" xmlns="http://www.w3.org/2000/svg" viewBox="0 1600 9000 512"><path d="M400 0L176 0c-26.5 0-48.1 21.8-47.1 48.2c.2 5.3 .4 10.6 .7 15.8L24 64C10.7 64 0 74.7 0 88c0 92.6 33.5 157 78.5 200.7c44.3 43.1 98.3 64.8 138.1 75.8c23.4 6.5 39.4 26 39.4 45.6c0 20.9-17 37.9-37.9 37.9L192 448c-17.7 0-32 14.3-32 32s14.3 32 32 32l192 0c17.7 0 32-14.3 32-32s-14.3-32-32-32l-26.1 0C337 448 320 431 320 410.1c0-19.6 15.9-39.2 39.4-45.6c39.9-11 93.9-32.7 138.2-75.8C542.5 245 576 180.6 576 88c0-13.3-10.7-24-24-24L446.4 64c.3-5.2 .5-10.4 .7-15.8C448.1 21.8 426.5 0 400 0zM48.9 112l84.4 0c9.1 90.1 29.2 150.3 51.9 190.6c-24.9-11-50.8-26.5-73.2-48.3c-32-31.1-58-76-63-142.3zM464.1 254.3c-22.4 21.8-48.3 37.3-73.2 48.3c22.7-40.3 42.8-100.5 51.9-190.6l84.4 0c-5.1 66.3-31.1 111.2-63 142.3z"/></svg><text class="stat bold" x="50" y="35">Total Contests Participated:</text><text class="stat bold" x="360" y="35" data-testid="contests">39</text></g>
<g class="stagger" style="animation-delay: 750ms" transform="translate(25, 50)"><svg class="icon" xmlns="http://www.w3.org/2000/svg" viewBox="-80 1500 9000 512"><path d="M173.8 5.5c11-7.3 25.4-7.3 36.4 0L228 17.2c6 3.9 13 5.8 20.1 5.4l21.3-1.3c13.2-.8 25.6 6.4 31.5 18.2l9.6 19.1c3.2 6.4 8.4 11.5 14.7 14.7L344.5 83c11.8 5.9 19 18.3 18.2 31.5l-1.3 21.3c-.4 7.1 1.5 14.2 5.4 20.1l11.8 17.8c7.3 11 7.3 25.4 0 36.4L366.8 228c-3.9 6-5.8 13-5.4 20.1l1.3 21.3c.8 13.2-6.4 25.6-18.2 31.5l-19.1 9.6c-6.4 3.2-11.5 8.4-14.7 14.7L301 344.5c-5.9 11.8-18.3 19-31.5 18.2l-21.3-1.3c-7.1-.4-14.2 1.5-20.1 5.4l-17.8 11.8c-11 7.3-25.4 7.3-36.4 0L156 366.8c-6-3.9-13-5.8-20.1-5.4l-21.3 1.3c-13.2 .8-25.6-6.4-31.5-18.2l-9.6-19.1c-3.2-6.4-8.4-11.5-14.7-14.7L39.5 301c-11.8-5.9-19-18.3-18.2-31.5l1.3-21.3c.4-7.1-1.5-14.2-5.4-20.1L5.5 210.2c-7.3-11-7.3-25.4 0-36.4L17.2 156c3.9-6 5.8-13 5.4-20.1l-1.3-21.3c-.8-13.2 6.4-25.6 18.2-31.5l19.1-9.6C65 70.2 70.2 65 73.4 58.6L83 39.5c5.9-11.8 18.3-19 31.5-18.2l21.3 1.3c7.1 .4 14.2-1.5 20.1-5.4L173.8 5.5zM272 192a80 80 0 1 0 -160 0 80 80 0 1 0 160 0zM1.3 441.8L44.4 339.3c.2 .1 .3 .2 .4 .4l9.6 19.1c11.7 23.2 36 37.3 62 35.8l21.3-1.3c.2 0 .5 0 .7 .2l17.8 11.8c5.1 3.3 10.5 5.9 16.1 7.7l-37.6 89.3c-2.3 5.5-7.4 9.2-13.3 9.7s-11.6-2.2-14.8-7.2L74.4 455.5l-56.1 8.3c-5.7 .8-11.4-1.5-15-6s-4.3-10.7-2.1-16zm248 60.4L211.7 413c5.6-1.8 11-4.3 16.1-7.7l17.8-11.8c.2-.1 .4-.2 .7-.2l21.3 1.3c26 1.5 50.3-12.6 62-35.8l9.6-19.1c.1-.2 .2-.3 .4-.4l43.2 102.5c2.2 5.3 1.4 11.4-2.1 16s-9.3 6.9-15 6l-56.1-8.3-32.2 49.2c-3.2 5-8.9 7.7-14.8 7.2s-11-4.3-13.3-9.7z"/></svg><text class="stat bold" x="50" y="40">Awards:</text><text class="stat bold" x="360" y="40" data-testid="awards">3</text></g></g></svg>